# MagicaVoxel @ Ephtracy

# group
o 

# material
mtllib HealthKit2.mtl
usemtl palette

# normals
vn -1 0 0
vn 1 0 0
vn 0 0 1
vn 0 0 -1
vn 0 -1 0
vn 0 1 0

# texcoords
vt 0.705078 0.5
vt 0.904297 0.5
vt 0.974609 0.5
vt 0.994141 0.5

# verts
v -0.4 0.2 0.4
v -0.4 0.2 -0.4
v -0.4 0.3 0.5
v -0.4 0.3 0.4
v -0.4 0.3 -0.4
v -0.4 0.3 -0.5
v -0.4 0.4 0.6
v -0.4 0.4 0.5
v -0.4 0.4 0.4
v -0.4 0.4 -0.4
v -0.4 0.4 -0.5
v -0.4 0.4 -0.6
v -0.4 0.5 0.3
v -0.4 0.5 -0.3
v -0.4 0.6 0.1
v -0.4 0.6 -0.1
v -0.4 0.9 0.3
v -0.4 0.9 0.1
v -0.4 0.9 -0.1
v -0.4 0.9 -0.3
v -0.4 1.1 0.3
v -0.4 1.1 0.1
v -0.4 1.1 -0.1
v -0.4 1.1 -0.3
v -0.4 1.4 0.1
v -0.4 1.4 -0.1
v -0.4 1.5 0.3
v -0.4 1.5 -0.3
v -0.4 1.6 0.6
v -0.4 1.6 0.5
v -0.4 1.6 0.4
v -0.4 1.6 -0.4
v -0.4 1.6 -0.5
v -0.4 1.6 -0.6
v -0.4 1.7 0.5
v -0.4 1.7 0.4
v -0.4 1.7 -0.4
v -0.4 1.7 -0.5
v -0.4 1.8 0.4
v -0.4 1.8 -0.4
v -0.3 0.2 0.5
v -0.3 0.2 0.4
v -0.3 0.2 -0.4
v -0.3 0.2 -0.5
v -0.3 0.3 0.6
v -0.3 0.3 0.5
v -0.3 0.3 0.4
v -0.3 0.3 -0.4
v -0.3 0.3 -0.5
v -0.3 0.3 -0.6
v -0.3 0.4 0.6
v -0.3 0.4 0.5
v -0.3 0.4 -0.5
v -0.3 0.4 -0.6
v -0.3 1.6 0.6
v -0.3 1.6 0.5
v -0.3 1.6 -0.5
v -0.3 1.6 -0.6
v -0.3 1.7 0.6
v -0.3 1.7 0.5
v -0.3 1.7 0.4
v -0.3 1.7 -0.4
v -0.3 1.7 -0.5
v -0.3 1.7 -0.6
v -0.3 1.8 0.5
v -0.3 1.8 0.4
v -0.3 1.8 -0.4
v -0.3 1.8 -0.5
v -0.2 0.2 0.6
v -0.2 0.2 0.5
v -0.2 0.2 -0.5
v -0.2 0.2 -0.6
v -0.2 0.3 0.6
v -0.2 0.3 0.5
v -0.2 0.3 -0.5
v -0.2 0.3 -0.6
v -0.2 0.4 0.7
v -0.2 0.4 0.6
v -0.2 0.4 -0.6
v -0.2 0.4 -0.7
v -0.2 1.6 0.7
v -0.2 1.6 0.6
v -0.2 1.6 -0.6
v -0.2 1.6 -0.7
v -0.2 1.7 0.6
v -0.2 1.7 0.5
v -0.2 1.7 -0.5
v -0.2 1.7 -0.6
v -0.2 1.8 0.6
v -0.2 1.8 0.5
v -0.2 1.8 -0.5
v -0.2 1.8 -0.6
v -0.1 0 0.4
v -0.1 0 0.1
v -0.1 0 -0.1
v -0.1 0 -0.4
v -0.1 0.1 0.3
v -0.1 0.1 0.1
v -0.1 0.1 -0.1
v -0.1 0.1 -0.3
v -0.1 0.2 0.4
v -0.1 0.2 0.3
v -0.1 0.2 -0.3
v -0.1 0.2 -0.4
v -0.1 1.8 0.4
v -0.1 1.8 0.3
v -0.1 1.8 -0.3
v -0.1 1.8 -0.4
v -0.1 1.9 0.3
v -0.1 1.9 0.1
v -0.1 1.9 -0.1
v -0.1 1.9 -0.3
v -0.1 2 0.4
v -0.1 2 0.1
v -0.1 2 -0.1
v -0.1 2 -0.4
v 0.1 0 0.4
v 0.1 0 0.1
v 0.1 0 -0.1
v 0.1 0 -0.4
v 0.1 0.1 0.3
v 0.1 0.1 0.1
v 0.1 0.1 -0.1
v 0.1 0.1 -0.3
v 0.1 0.2 0.4
v 0.1 0.2 0.3
v 0.1 0.2 -0.3
v 0.1 0.2 -0.4
v 0.1 1.8 0.4
v 0.1 1.8 0.3
v 0.1 1.8 -0.3
v 0.1 1.8 -0.4
v 0.1 1.9 0.3
v 0.1 1.9 0.1
v 0.1 1.9 -0.1
v 0.1 1.9 -0.3
v 0.1 2 0.4
v 0.1 2 0.1
v 0.1 2 -0.1
v 0.1 2 -0.4
v 0.2 0.2 0.6
v 0.2 0.2 0.5
v 0.2 0.2 -0.5
v 0.2 0.2 -0.6
v 0.2 0.3 0.6
v 0.2 0.3 0.5
v 0.2 0.3 -0.5
v 0.2 0.3 -0.6
v 0.2 0.4 0.7
v 0.2 0.4 0.6
v 0.2 0.4 -0.6
v 0.2 0.4 -0.7
v 0.2 1.6 0.7
v 0.2 1.6 0.6
v 0.2 1.6 -0.6
v 0.2 1.6 -0.7
v 0.2 1.7 0.6
v 0.2 1.7 0.5
v 0.2 1.7 -0.5
v 0.2 1.7 -0.6
v 0.2 1.8 0.6
v 0.2 1.8 0.5
v 0.2 1.8 -0.5
v 0.2 1.8 -0.6
v 0.3 0.2 0.5
v 0.3 0.2 0.4
v 0.3 0.2 -0.4
v 0.3 0.2 -0.5
v 0.3 0.3 0.6
v 0.3 0.3 0.5
v 0.3 0.3 0.4
v 0.3 0.3 -0.4
v 0.3 0.3 -0.5
v 0.3 0.3 -0.6
v 0.3 0.4 0.6
v 0.3 0.4 0.5
v 0.3 0.4 -0.5
v 0.3 0.4 -0.6
v 0.3 1.6 0.6
v 0.3 1.6 0.5
v 0.3 1.6 -0.5
v 0.3 1.6 -0.6
v 0.3 1.7 0.6
v 0.3 1.7 0.5
v 0.3 1.7 0.4
v 0.3 1.7 -0.4
v 0.3 1.7 -0.5
v 0.3 1.7 -0.6
v 0.3 1.8 0.5
v 0.3 1.8 0.4
v 0.3 1.8 -0.4
v 0.3 1.8 -0.5
v 0.4 0.2 0.4
v 0.4 0.2 -0.4
v 0.4 0.3 0.5
v 0.4 0.3 0.4
v 0.4 0.3 -0.4
v 0.4 0.3 -0.5
v 0.4 0.4 0.6
v 0.4 0.4 0.5
v 0.4 0.4 0.4
v 0.4 0.4 -0.4
v 0.4 0.4 -0.5
v 0.4 0.4 -0.6
v 0.4 0.5 0.3
v 0.4 0.5 -0.3
v 0.4 0.6 0.1
v 0.4 0.6 -0.1
v 0.4 0.9 0.3
v 0.4 0.9 0.1
v 0.4 0.9 -0.1
v 0.4 0.9 -0.3
v 0.4 1.1 0.3
v 0.4 1.1 0.1
v 0.4 1.1 -0.1
v 0.4 1.1 -0.3
v 0.4 1.4 0.1
v 0.4 1.4 -0.1
v 0.4 1.5 0.3
v 0.4 1.5 -0.3
v 0.4 1.6 0.6
v 0.4 1.6 0.5
v 0.4 1.6 0.4
v 0.4 1.6 -0.4
v 0.4 1.6 -0.5
v 0.4 1.6 -0.6
v 0.4 1.7 0.5
v 0.4 1.7 0.4
v 0.4 1.7 -0.4
v 0.4 1.7 -0.5
v 0.4 1.8 0.4
v 0.4 1.8 -0.4
v -0.2 0.4 0.7
v -0.2 1.6 0.7
v -0.1 0.5 0.7
v -0.1 1.2 0.7
v -0.1 1.3 0.7
v -0.1 1.5 0.7
v 0.1 0.5 0.7
v 0.1 1.2 0.7
v 0.1 1.3 0.7
v 0.1 1.5 0.7
v 0.2 0.4 0.7
v 0.2 1.6 0.7
v -0.4 0.4 0.6
v -0.4 1.6 0.6
v -0.3 0.3 0.6
v -0.3 0.4 0.6
v -0.3 1.6 0.6
v -0.3 1.7 0.6
v -0.2 0.2 0.6
v -0.2 0.3 0.6
v -0.2 0.4 0.6
v -0.2 1.6 0.6
v -0.2 1.7 0.6
v -0.2 1.8 0.6
v 0.2 0.2 0.6
v 0.2 0.3 0.6
v 0.2 0.4 0.6
v 0.2 1.6 0.6
v 0.2 1.7 0.6
v 0.2 1.8 0.6
v 0.3 0.3 0.6
v 0.3 0.4 0.6
v 0.3 1.6 0.6
v 0.3 1.7 0.6
v 0.4 0.4 0.6
v 0.4 1.6 0.6
v -0.4 0.3 0.5
v -0.4 0.4 0.5
v -0.4 1.6 0.5
v -0.4 1.7 0.5
v -0.3 0.2 0.5
v -0.3 0.3 0.5
v -0.3 0.4 0.5
v -0.3 1.6 0.5
v -0.3 1.7 0.5
v -0.3 1.8 0.5
v -0.2 0.2 0.5
v -0.2 0.3 0.5
v -0.2 1.7 0.5
v -0.2 1.8 0.5
v 0.2 0.2 0.5
v 0.2 0.3 0.5
v 0.2 1.7 0.5
v 0.2 1.8 0.5
v 0.3 0.2 0.5
v 0.3 0.3 0.5
v 0.3 0.4 0.5
v 0.3 1.6 0.5
v 0.3 1.7 0.5
v 0.3 1.8 0.5
v 0.4 0.3 0.5
v 0.4 0.4 0.5
v 0.4 1.6 0.5
v 0.4 1.7 0.5
v -0.4 0.2 0.4
v -0.4 0.3 0.4
v -0.4 1.7 0.4
v -0.4 1.8 0.4
v -0.3 0.2 0.4
v -0.3 0.3 0.4
v -0.3 1.7 0.4
v -0.3 1.8 0.4
v -0.1 0 0.4
v -0.1 0.2 0.4
v -0.1 1.8 0.4
v -0.1 2 0.4
v 0.1 0 0.4
v 0.1 0.2 0.4
v 0.1 1.8 0.4
v 0.1 2 0.4
v 0.3 0.2 0.4
v 0.3 0.3 0.4
v 0.3 1.7 0.4
v 0.3 1.8 0.4
v 0.4 0.2 0.4
v 0.4 0.3 0.4
v 0.4 1.7 0.4
v 0.4 1.8 0.4
v -0.1 0.1 -0.3
v -0.1 0.2 -0.3
v -0.1 1.8 -0.3
v -0.1 1.9 -0.3
v 0.1 0.1 -0.3
v 0.1 0.2 -0.3
v 0.1 1.8 -0.3
v 0.1 1.9 -0.3
v -0.1 0.1 0.3
v -0.1 0.2 0.3
v -0.1 1.8 0.3
v -0.1 1.9 0.3
v 0.1 0.1 0.3
v 0.1 0.2 0.3
v 0.1 1.8 0.3
v 0.1 1.9 0.3
v -0.4 0.2 -0.4
v -0.4 0.3 -0.4
v -0.4 1.7 -0.4
v -0.4 1.8 -0.4
v -0.3 0.2 -0.4
v -0.3 0.3 -0.4
v -0.3 1.7 -0.4
v -0.3 1.8 -0.4
v -0.1 0 -0.4
v -0.1 0.2 -0.4
v -0.1 1.8 -0.4
v -0.1 2 -0.4
v 0.1 0 -0.4
v 0.1 0.2 -0.4
v 0.1 1.8 -0.4
v 0.1 2 -0.4
v 0.3 0.2 -0.4
v 0.3 0.3 -0.4
v 0.3 1.7 -0.4
v 0.3 1.8 -0.4
v 0.4 0.2 -0.4
v 0.4 0.3 -0.4
v 0.4 1.7 -0.4
v 0.4 1.8 -0.4
v -0.4 0.3 -0.5
v -0.4 0.4 -0.5
v -0.4 1.6 -0.5
v -0.4 1.7 -0.5
v -0.3 0.2 -0.5
v -0.3 0.3 -0.5
v -0.3 0.4 -0.5
v -0.3 1.6 -0.5
v -0.3 1.7 -0.5
v -0.3 1.8 -0.5
v -0.2 0.2 -0.5
v -0.2 0.3 -0.5
v -0.2 1.7 -0.5
v -0.2 1.8 -0.5
v 0.2 0.2 -0.5
v 0.2 0.3 -0.5
v 0.2 1.7 -0.5
v 0.2 1.8 -0.5
v 0.3 0.2 -0.5
v 0.3 0.3 -0.5
v 0.3 0.4 -0.5
v 0.3 1.6 -0.5
v 0.3 1.7 -0.5
v 0.3 1.8 -0.5
v 0.4 0.3 -0.5
v 0.4 0.4 -0.5
v 0.4 1.6 -0.5
v 0.4 1.7 -0.5
v -0.4 0.4 -0.6
v -0.4 1.6 -0.6
v -0.3 0.3 -0.6
v -0.3 0.4 -0.6
v -0.3 1.6 -0.6
v -0.3 1.7 -0.6
v -0.2 0.2 -0.6
v -0.2 0.3 -0.6
v -0.2 0.4 -0.6
v -0.2 1.6 -0.6
v -0.2 1.7 -0.6
v -0.2 1.8 -0.6
v 0.2 0.2 -0.6
v 0.2 0.3 -0.6
v 0.2 0.4 -0.6
v 0.2 1.6 -0.6
v 0.2 1.7 -0.6
v 0.2 1.8 -0.6
v 0.3 0.3 -0.6
v 0.3 0.4 -0.6
v 0.3 1.6 -0.6
v 0.3 1.7 -0.6
v 0.4 0.4 -0.6
v 0.4 1.6 -0.6
v -0.2 0.4 -0.7
v -0.2 1.6 -0.7
v -0.1 0.5 -0.7
v -0.1 1.2 -0.7
v -0.1 1.3 -0.7
v -0.1 1.5 -0.7
v 0.1 0.5 -0.7
v 0.1 1.2 -0.7
v 0.1 1.3 -0.7
v 0.1 1.5 -0.7
v 0.2 0.4 -0.7
v 0.2 1.6 -0.7
v -0.1 0 0.4
v 0.1 0 0.4
v -0.1 0 0.1
v 0.1 0 0.1
v -0.1 0 -0.1
v 0.1 0 -0.1
v -0.1 0 -0.4
v 0.1 0 -0.4
v -0.2 0.2 0.6
v 0.2 0.2 0.6
v -0.3 0.2 0.5
v -0.2 0.2 0.5
v -0.1 0.2 0.5
v 0.1 0.2 0.5
v 0.2 0.2 0.5
v 0.3 0.2 0.5
v -0.4 0.2 0.4
v -0.3 0.2 0.4
v -0.2 0.2 0.4
v -0.1 0.2 0.4
v 0.1 0.2 0.4
v 0.2 0.2 0.4
v 0.3 0.2 0.4
v 0.4 0.2 0.4
v -0.1 0.2 0.3
v 0.1 0.2 0.3
v -0.1 0.2 -0.3
v 0.1 0.2 -0.3
v -0.4 0.2 -0.4
v -0.3 0.2 -0.4
v -0.2 0.2 -0.4
v -0.1 0.2 -0.4
v 0.1 0.2 -0.4
v 0.2 0.2 -0.4
v 0.3 0.2 -0.4
v 0.4 0.2 -0.4
v -0.3 0.2 -0.5
v -0.2 0.2 -0.5
v -0.1 0.2 -0.5
v 0.1 0.2 -0.5
v 0.2 0.2 -0.5
v 0.3 0.2 -0.5
v -0.2 0.2 -0.6
v 0.2 0.2 -0.6
v -0.3 0.3 0.6
v -0.2 0.3 0.6
v 0.2 0.3 0.6
v 0.3 0.3 0.6
v -0.4 0.3 0.5
v -0.3 0.3 0.5
v -0.2 0.3 0.5
v 0.2 0.3 0.5
v 0.3 0.3 0.5
v 0.4 0.3 0.5
v -0.4 0.3 0.4
v -0.3 0.3 0.4
v 0.3 0.3 0.4
v 0.4 0.3 0.4
v -0.4 0.3 -0.4
v -0.3 0.3 -0.4
v 0.3 0.3 -0.4
v 0.4 0.3 -0.4
v -0.4 0.3 -0.5
v -0.3 0.3 -0.5
v -0.2 0.3 -0.5
v 0.2 0.3 -0.5
v 0.3 0.3 -0.5
v 0.4 0.3 -0.5
v -0.3 0.3 -0.6
v -0.2 0.3 -0.6
v 0.2 0.3 -0.6
v 0.3 0.3 -0.6
v -0.2 0.4 0.7
v 0.2 0.4 0.7
v -0.4 0.4 0.6
v -0.3 0.4 0.6
v -0.2 0.4 0.6
v 0.2 0.4 0.6
v 0.3 0.4 0.6
v 0.4 0.4 0.6
v -0.4 0.4 0.5
v -0.3 0.4 0.5
v 0.3 0.4 0.5
v 0.4 0.4 0.5
v -0.4 0.4 -0.5
v -0.3 0.4 -0.5
v 0.3 0.4 -0.5
v 0.4 0.4 -0.5
v -0.4 0.4 -0.6
v -0.3 0.4 -0.6
v -0.2 0.4 -0.6
v 0.2 0.4 -0.6
v 0.3 0.4 -0.6
v 0.4 0.4 -0.6
v -0.2 0.4 -0.7
v 0.2 0.4 -0.7
v -0.1 1.9 0.3
v 0.1 1.9 0.3
v -0.1 1.9 0.1
v 0.1 1.9 0.1
v -0.1 1.9 -0.1
v 0.1 1.9 -0.1
v -0.1 1.9 -0.3
v 0.1 1.9 -0.3
v -0.1 0.1 0.3
v 0.1 0.1 0.3
v -0.1 0.1 0.1
v 0.1 0.1 0.1
v -0.1 0.1 -0.1
v 0.1 0.1 -0.1
v -0.1 0.1 -0.3
v 0.1 0.1 -0.3
v -0.2 1.6 0.7
v 0.2 1.6 0.7
v -0.4 1.6 0.6
v -0.3 1.6 0.6
v -0.2 1.6 0.6
v 0.2 1.6 0.6
v 0.3 1.6 0.6
v 0.4 1.6 0.6
v -0.4 1.6 0.5
v -0.3 1.6 0.5
v 0.3 1.6 0.5
v 0.4 1.6 0.5
v -0.4 1.6 -0.5
v -0.3 1.6 -0.5
v 0.3 1.6 -0.5
v 0.4 1.6 -0.5
v -0.4 1.6 -0.6
v -0.3 1.6 -0.6
v -0.2 1.6 -0.6
v 0.2 1.6 -0.6
v 0.3 1.6 -0.6
v 0.4 1.6 -0.6
v -0.2 1.6 -0.7
v 0.2 1.6 -0.7
v -0.3 1.7 0.6
v -0.2 1.7 0.6
v 0.2 1.7 0.6
v 0.3 1.7 0.6
v -0.4 1.7 0.5
v -0.3 1.7 0.5
v -0.2 1.7 0.5
v 0.2 1.7 0.5
v 0.3 1.7 0.5
v 0.4 1.7 0.5
v -0.4 1.7 0.4
v -0.3 1.7 0.4
v 0.3 1.7 0.4
v 0.4 1.7 0.4
v -0.4 1.7 -0.4
v -0.3 1.7 -0.4
v 0.3 1.7 -0.4
v 0.4 1.7 -0.4
v -0.4 1.7 -0.5
v -0.3 1.7 -0.5
v -0.2 1.7 -0.5
v 0.2 1.7 -0.5
v 0.3 1.7 -0.5
v 0.4 1.7 -0.5
v -0.3 1.7 -0.6
v -0.2 1.7 -0.6
v 0.2 1.7 -0.6
v 0.3 1.7 -0.6
v -0.2 1.8 0.6
v 0.2 1.8 0.6
v -0.3 1.8 0.5
v -0.2 1.8 0.5
v -0.1 1.8 0.5
v 0.1 1.8 0.5
v 0.2 1.8 0.5
v 0.3 1.8 0.5
v -0.4 1.8 0.4
v -0.3 1.8 0.4
v -0.2 1.8 0.4
v -0.1 1.8 0.4
v 0.1 1.8 0.4
v 0.2 1.8 0.4
v 0.3 1.8 0.4
v 0.4 1.8 0.4
v -0.1 1.8 0.3
v 0.1 1.8 0.3
v -0.1 1.8 -0.3
v 0.1 1.8 -0.3
v -0.4 1.8 -0.4
v -0.3 1.8 -0.4
v -0.2 1.8 -0.4
v -0.1 1.8 -0.4
v 0.1 1.8 -0.4
v 0.2 1.8 -0.4
v 0.3 1.8 -0.4
v 0.4 1.8 -0.4
v -0.3 1.8 -0.5
v -0.2 1.8 -0.5
v -0.1 1.8 -0.5
v 0.1 1.8 -0.5
v 0.2 1.8 -0.5
v 0.3 1.8 -0.5
v -0.2 1.8 -0.6
v 0.2 1.8 -0.6
v -0.1 2 0.4
v 0.1 2 0.4
v -0.1 2 0.1
v 0.1 2 0.1
v -0.1 2 -0.1
v 0.1 2 -0.1
v -0.1 2 -0.4
v 0.1 2 -0.4

# faces
f 4/4/1 2/4/1 1/4/1
f 5/4/1 2/4/1 4/4/1
f 8/4/1 4/4/1 3/4/1
f 9/3/1 5/3/1 4/3/1
f 9/4/1 4/4/1 8/4/1
f 10/4/1 6/4/1 5/4/1
f 10/3/1 5/3/1 9/3/1
f 11/4/1 6/4/1 10/4/1
f 13/4/1 10/4/1 9/4/1
f 14/4/1 10/4/1 13/4/1
f 15/1/1 14/1/1 13/1/1
f 16/1/1 14/1/1 15/1/1
f 17/4/1 13/4/1 9/4/1
f 17/1/1 15/1/1 13/1/1
f 18/2/1 16/2/1 15/2/1
f 18/1/1 15/1/1 17/1/1
f 19/1/1 14/1/1 16/1/1
f 19/2/1 16/2/1 18/2/1
f 20/4/1 10/4/1 14/4/1
f 20/1/1 14/1/1 19/1/1
f 21/2/1 18/2/1 17/2/1
f 21/2/1 19/2/1 18/2/1
f 21/2/1 20/2/1 19/2/1
f 21/4/1 17/4/1 9/4/1
f 22/2/1 20/2/1 21/2/1
f 23/2/1 20/2/1 22/2/1
f 24/4/1 10/4/1 20/4/1
f 24/2/1 20/2/1 23/2/1
f 25/2/1 23/2/1 22/2/1
f 25/1/1 22/1/1 21/1/1
f 26/1/1 24/1/1 23/1/1
f 26/2/1 23/2/1 25/2/1
f 27/4/1 21/4/1 9/4/1
f 27/1/1 25/1/1 21/1/1
f 27/1/1 26/1/1 25/1/1
f 28/4/1 10/4/1 24/4/1
f 28/1/1 26/1/1 27/1/1
f 28/1/1 24/1/1 26/1/1
f 29/4/1 8/4/1 7/4/1
f 30/3/1 9/3/1 8/3/1
f 30/4/1 8/4/1 29/4/1
f 31/4/1 27/4/1 9/4/1
f 31/3/1 9/3/1 30/3/1
f 31/4/1 28/4/1 27/4/1
f 32/4/1 10/4/1 28/4/1
f 32/4/1 28/4/1 31/4/1
f 32/3/1 11/3/1 10/3/1
f 33/4/1 12/4/1 11/4/1
f 33/3/1 11/3/1 32/3/1
f 34/4/1 12/4/1 33/4/1
f 35/4/1 31/4/1 30/4/1
f 36/3/1 32/3/1 31/3/1
f 36/4/1 31/4/1 35/4/1
f 37/4/1 33/4/1 32/4/1
f 37/3/1 32/3/1 36/3/1
f 38/4/1 33/4/1 37/4/1
f 39/4/1 37/4/1 36/4/1
f 40/4/1 37/4/1 39/4/1
f 46/3/1 42/3/1 41/3/1
f 47/3/1 42/3/1 46/3/1
f 48/3/1 44/3/1 43/3/1
f 49/3/1 44/3/1 48/3/1
f 51/3/1 46/3/1 45/3/1
f 52/3/1 46/3/1 51/3/1
f 53/3/1 50/3/1 49/3/1
f 54/3/1 50/3/1 53/3/1
f 59/3/1 56/3/1 55/3/1
f 60/3/1 56/3/1 59/3/1
f 63/3/1 58/3/1 57/3/1
f 64/3/1 58/3/1 63/3/1
f 65/3/1 61/3/1 60/3/1
f 66/3/1 61/3/1 65/3/1
f 67/3/1 63/3/1 62/3/1
f 68/3/1 63/3/1 67/3/1
f 73/3/1 70/3/1 69/3/1
f 74/3/1 70/3/1 73/3/1
f 75/3/1 72/3/1 71/3/1
f 76/3/1 72/3/1 75/3/1
f 81/4/1 78/4/1 77/4/1
f 82/4/1 78/4/1 81/4/1
f 83/4/1 80/4/1 79/4/1
f 84/4/1 80/4/1 83/4/1
f 89/3/1 86/3/1 85/3/1
f 90/3/1 86/3/1 89/3/1
f 91/3/1 88/3/1 87/3/1
f 92/3/1 88/3/1 91/3/1
f 97/3/1 94/3/1 93/3/1
f 98/4/1 95/4/1 94/4/1
f 98/3/1 94/3/1 97/3/1
f 99/3/1 96/3/1 95/3/1
f 99/4/1 95/4/1 98/4/1
f 100/3/1 96/3/1 99/3/1
f 101/3/1 97/3/1 93/3/1
f 102/3/1 97/3/1 101/3/1
f 103/3/1 96/3/1 100/3/1
f 104/3/1 96/3/1 103/3/1
f 109/3/1 106/3/1 105/3/1
f 112/3/1 108/3/1 107/3/1
f 113/3/1 109/3/1 105/3/1
f 113/3/1 110/3/1 109/3/1
f 114/4/1 111/4/1 110/4/1
f 114/3/1 110/3/1 113/3/1
f 115/3/1 112/3/1 111/3/1
f 115/4/1 111/4/1 114/4/1
f 116/3/1 108/3/1 112/3/1
f 116/3/1 112/3/1 115/3/1
f 117/3/2 118/3/2 121/3/2
f 118/4/2 119/4/2 122/4/2
f 121/3/2 118/3/2 122/3/2
f 119/3/2 120/3/2 123/3/2
f 122/4/2 119/4/2 123/4/2
f 123/3/2 120/3/2 124/3/2
f 117/3/2 121/3/2 125/3/2
f 125/3/2 121/3/2 126/3/2
f 124/3/2 120/3/2 127/3/2
f 127/3/2 120/3/2 128/3/2
f 129/3/2 130/3/2 133/3/2
f 131/3/2 132/3/2 136/3/2
f 129/3/2 133/3/2 137/3/2
f 133/3/2 134/3/2 137/3/2
f 134/4/2 135/4/2 138/4/2
f 137/3/2 134/3/2 138/3/2
f 135/3/2 136/3/2 139/3/2
f 138/4/2 135/4/2 139/4/2
f 136/3/2 132/3/2 140/3/2
f 139/3/2 136/3/2 140/3/2
f 141/3/2 142/3/2 145/3/2
f 145/3/2 142/3/2 146/3/2
f 143/3/2 144/3/2 147/3/2
f 147/3/2 144/3/2 148/3/2
f 149/4/2 150/4/2 153/4/2
f 153/4/2 150/4/2 154/4/2
f 151/4/2 152/4/2 155/4/2
f 155/4/2 152/4/2 156/4/2
f 157/3/2 158/3/2 161/3/2
f 161/3/2 158/3/2 162/3/2
f 159/3/2 160/3/2 163/3/2
f 163/3/2 160/3/2 164/3/2
f 165/3/2 166/3/2 170/3/2
f 170/3/2 166/3/2 171/3/2
f 167/3/2 168/3/2 172/3/2
f 172/3/2 168/3/2 173/3/2
f 169/3/2 170/3/2 175/3/2
f 175/3/2 170/3/2 176/3/2
f 173/3/2 174/3/2 177/3/2
f 177/3/2 174/3/2 178/3/2
f 179/3/2 180/3/2 183/3/2
f 183/3/2 180/3/2 184/3/2
f 181/3/2 182/3/2 187/3/2
f 187/3/2 182/3/2 188/3/2
f 184/3/2 185/3/2 189/3/2
f 189/3/2 185/3/2 190/3/2
f 186/3/2 187/3/2 191/3/2
f 191/3/2 187/3/2 192/3/2
f 193/4/2 194/4/2 196/4/2
f 196/4/2 194/4/2 197/4/2
f 195/4/2 196/4/2 200/4/2
f 196/3/2 197/3/2 201/3/2
f 200/4/2 196/4/2 201/4/2
f 197/4/2 198/4/2 202/4/2
f 201/3/2 197/3/2 202/3/2
f 202/4/2 198/4/2 203/4/2
f 201/4/2 202/4/2 205/4/2
f 205/4/2 202/4/2 206/4/2
f 205/1/2 206/1/2 207/1/2
f 207/1/2 206/1/2 208/1/2
f 201/4/2 205/4/2 209/4/2
f 205/1/2 207/1/2 209/1/2
f 207/2/2 208/2/2 210/2/2
f 209/1/2 207/1/2 210/1/2
f 208/1/2 206/1/2 211/1/2
f 210/2/2 208/2/2 211/2/2
f 206/4/2 202/4/2 212/4/2
f 211/1/2 206/1/2 212/1/2
f 209/2/2 210/2/2 213/2/2
f 210/2/2 211/2/2 213/2/2
f 211/2/2 212/2/2 213/2/2
f 201/4/2 209/4/2 213/4/2
f 213/2/2 212/2/2 214/2/2
f 214/2/2 212/2/2 215/2/2
f 212/4/2 202/4/2 216/4/2
f 215/2/2 212/2/2 216/2/2
f 214/2/2 215/2/2 217/2/2
f 213/1/2 214/1/2 217/1/2
f 215/1/2 216/1/2 218/1/2
f 217/2/2 215/2/2 218/2/2
f 201/4/2 213/4/2 219/4/2
f 213/1/2 217/1/2 219/1/2
f 217/1/2 218/1/2 219/1/2
f 216/4/2 202/4/2 220/4/2
f 219/1/2 218/1/2 220/1/2
f 218/1/2 216/1/2 220/1/2
f 199/4/2 200/4/2 221/4/2
f 200/3/2 201/3/2 222/3/2
f 221/4/2 200/4/2 222/4/2
f 201/4/2 219/4/2 223/4/2
f 222/3/2 201/3/2 223/3/2
f 219/4/2 220/4/2 223/4/2
f 220/4/2 202/4/2 224/4/2
f 223/4/2 220/4/2 224/4/2
f 202/3/2 203/3/2 224/3/2
f 203/4/2 204/4/2 225/4/2
f 224/3/2 203/3/2 225/3/2
f 225/4/2 204/4/2 226/4/2
f 222/4/2 223/4/2 227/4/2
f 223/3/2 224/3/2 228/3/2
f 227/4/2 223/4/2 228/4/2
f 224/4/2 225/4/2 229/4/2
f 228/3/2 224/3/2 229/3/2
f 229/4/2 225/4/2 230/4/2
f 228/4/2 229/4/2 231/4/2
f 231/4/2 229/4/2 232/4/2
f 235/4/3 234/4/3 233/4/3
f 236/4/3 234/4/3 235/4/3
f 237/4/3 234/4/3 236/4/3
f 238/4/3 234/4/3 237/4/3
f 239/4/3 235/4/3 233/4/3
f 239/1/3 236/1/3 235/1/3
f 240/4/3 237/4/3 236/4/3
f 240/1/3 236/1/3 239/1/3
f 241/1/3 238/1/3 237/1/3
f 241/4/3 237/4/3 240/4/3
f 242/4/3 234/4/3 238/4/3
f 242/1/3 238/1/3 241/1/3
f 243/4/3 241/4/3 240/4/3
f 243/4/3 240/4/3 239/4/3
f 243/4/3 242/4/3 241/4/3
f 243/4/3 239/4/3 233/4/3
f 244/4/3 234/4/3 242/4/3
f 244/4/3 242/4/3 243/4/3
f 248/4/3 246/4/3 245/4/3
f 249/4/3 246/4/3 248/4/3
f 252/3/3 248/3/3 247/3/3
f 252/3/3 250/3/3 249/3/3
f 252/3/3 249/3/3 248/3/3
f 253/3/3 250/3/3 252/3/3
f 254/3/3 250/3/3 253/3/3
f 255/3/3 250/3/3 254/3/3
f 257/3/3 252/3/3 251/3/3
f 257/3/3 253/3/3 252/3/3
f 258/3/3 253/3/3 257/3/3
f 259/3/3 253/3/3 258/3/3
f 260/3/3 256/3/3 255/3/3
f 260/3/3 255/3/3 254/3/3
f 261/3/3 256/3/3 260/3/3
f 262/3/3 256/3/3 261/3/3
f 263/3/3 259/3/3 258/3/3
f 263/3/3 261/3/3 260/3/3
f 263/3/3 260/3/3 259/3/3
f 264/3/3 261/3/3 263/3/3
f 265/3/3 261/3/3 264/3/3
f 266/3/3 261/3/3 265/3/3
f 267/4/3 265/4/3 264/4/3
f 268/4/3 265/4/3 267/4/3
f 274/4/3 270/4/3 269/4/3
f 275/4/3 270/4/3 274/4/3
f 276/4/3 272/4/3 271/4/3
f 277/4/3 272/4/3 276/4/3
f 279/3/3 274/3/3 273/3/3
f 280/3/3 274/3/3 279/3/3
f 281/3/3 278/3/3 277/3/3
f 282/3/3 278/3/3 281/3/3
f 287/3/3 284/3/3 283/3/3
f 288/3/3 284/3/3 287/3/3
f 291/3/3 286/3/3 285/3/3
f 292/3/3 286/3/3 291/3/3
f 293/4/3 289/4/3 288/4/3
f 294/4/3 289/4/3 293/4/3
f 295/4/3 291/4/3 290/4/3
f 296/4/3 291/4/3 295/4/3
f 301/4/3 298/4/3 297/4/3
f 302/4/3 298/4/3 301/4/3
f 303/4/3 300/4/3 299/4/3
f 304/4/3 300/4/3 303/4/3
f 309/3/3 306/3/3 305/3/3
f 310/3/3 306/3/3 309/3/3
f 311/3/3 308/3/3 307/3/3
f 312/3/3 308/3/3 311/3/3
f 317/4/3 314/4/3 313/4/3
f 318/4/3 314/4/3 317/4/3
f 319/4/3 316/4/3 315/4/3
f 320/4/3 316/4/3 319/4/3
f 325/3/3 322/3/3 321/3/3
f 326/3/3 322/3/3 325/3/3
f 327/3/3 324/3/3 323/3/3
f 328/3/3 324/3/3 327/3/3
f 329/3/4 330/3/4 333/3/4
f 333/3/4 330/3/4 334/3/4
f 331/3/4 332/3/4 335/3/4
f 335/3/4 332/3/4 336/3/4
f 337/4/4 338/4/4 341/4/4
f 341/4/4 338/4/4 342/4/4
f 339/4/4 340/4/4 343/4/4
f 343/4/4 340/4/4 344/4/4
f 345/3/4 346/3/4 349/3/4
f 349/3/4 346/3/4 350/3/4
f 347/3/4 348/3/4 351/3/4
f 351/3/4 348/3/4 352/3/4
f 353/4/4 354/4/4 357/4/4
f 357/4/4 354/4/4 358/4/4
f 355/4/4 356/4/4 359/4/4
f 359/4/4 356/4/4 360/4/4
f 361/4/4 362/4/4 366/4/4
f 366/4/4 362/4/4 367/4/4
f 363/4/4 364/4/4 368/4/4
f 368/4/4 364/4/4 369/4/4
f 365/3/4 366/3/4 371/3/4
f 371/3/4 366/3/4 372/3/4
f 369/3/4 370/3/4 373/3/4
f 373/3/4 370/3/4 374/3/4
f 375/3/4 376/3/4 379/3/4
f 379/3/4 376/3/4 380/3/4
f 377/3/4 378/3/4 383/3/4
f 383/3/4 378/3/4 384/3/4
f 380/4/4 381/4/4 385/4/4
f 385/4/4 381/4/4 386/4/4
f 382/4/4 383/4/4 387/4/4
f 387/4/4 383/4/4 388/4/4
f 389/4/4 390/4/4 392/4/4
f 392/4/4 390/4/4 393/4/4
f 391/3/4 392/3/4 396/3/4
f 393/3/4 394/3/4 396/3/4
f 392/3/4 393/3/4 396/3/4
f 396/3/4 394/3/4 397/3/4
f 397/3/4 394/3/4 398/3/4
f 398/3/4 394/3/4 399/3/4
f 395/3/4 396/3/4 401/3/4
f 396/3/4 397/3/4 401/3/4
f 401/3/4 397/3/4 402/3/4
f 402/3/4 397/3/4 403/3/4
f 399/3/4 400/3/4 404/3/4
f 398/3/4 399/3/4 404/3/4
f 404/3/4 400/3/4 405/3/4
f 405/3/4 400/3/4 406/3/4
f 402/3/4 403/3/4 407/3/4
f 404/3/4 405/3/4 407/3/4
f 403/3/4 404/3/4 407/3/4
f 407/3/4 405/3/4 408/3/4
f 408/3/4 405/3/4 409/3/4
f 409/3/4 405/3/4 410/3/4
f 408/4/4 409/4/4 411/4/4
f 411/4/4 409/4/4 412/4/4
f 413/4/4 414/4/4 415/4/4
f 415/4/4 414/4/4 416/4/4
f 416/4/4 414/4/4 417/4/4
f 417/4/4 414/4/4 418/4/4
f 413/4/4 415/4/4 419/4/4
f 415/1/4 416/1/4 419/1/4
f 416/4/4 417/4/4 420/4/4
f 419/1/4 416/1/4 420/1/4
f 417/1/4 418/1/4 421/1/4
f 420/4/4 417/4/4 421/4/4
f 418/4/4 414/4/4 422/4/4
f 421/1/4 418/1/4 422/1/4
f 420/4/4 421/4/4 423/4/4
f 419/4/4 420/4/4 423/4/4
f 421/4/4 422/4/4 423/4/4
f 413/4/4 419/4/4 423/4/4
f 422/4/4 414/4/4 424/4/4
f 423/4/4 422/4/4 424/4/4
f 427/3/5 426/3/5 425/3/5
f 428/3/5 426/3/5 427/3/5
f 429/4/5 428/4/5 427/4/5
f 430/4/5 428/4/5 429/4/5
f 431/3/5 430/3/5 429/3/5
f 432/3/5 430/3/5 431/3/5
f 436/3/5 434/3/5 433/3/5
f 437/3/5 434/3/5 436/3/5
f 438/3/5 434/3/5 437/3/5
f 439/3/5 434/3/5 438/3/5
f 442/3/5 436/3/5 435/3/5
f 442/3/5 437/3/5 436/3/5
f 443/3/5 437/3/5 442/3/5
f 444/4/5 438/4/5 437/4/5
f 444/3/5 437/3/5 443/3/5
f 445/3/5 440/3/5 439/3/5
f 445/4/5 438/4/5 444/4/5
f 445/3/5 439/3/5 438/3/5
f 446/3/5 440/3/5 445/3/5
f 447/3/5 440/3/5 446/3/5
f 449/4/5 444/4/5 443/4/5
f 450/4/5 446/4/5 445/4/5
f 451/4/5 449/4/5 443/4/5
f 451/1/5 450/1/5 449/1/5
f 452/4/5 446/4/5 450/4/5
f 452/1/5 450/1/5 451/1/5
f 453/4/5 442/4/5 441/4/5
f 454/3/5 443/3/5 442/3/5
f 454/4/5 442/4/5 453/4/5
f 455/4/5 451/4/5 443/4/5
f 455/3/5 443/3/5 454/3/5
f 456/4/5 451/4/5 455/4/5
f 457/4/5 446/4/5 452/4/5
f 458/3/5 447/3/5 446/3/5
f 458/4/5 446/4/5 457/4/5
f 459/4/5 448/4/5 447/4/5
f 459/3/5 447/3/5 458/3/5
f 460/4/5 448/4/5 459/4/5
f 461/3/5 456/3/5 455/3/5
f 461/3/5 455/3/5 454/3/5
f 462/3/5 456/3/5 461/3/5
f 463/4/5 457/4/5 456/4/5
f 463/3/5 456/3/5 462/3/5
f 464/3/5 458/3/5 457/3/5
f 464/4/5 457/4/5 463/4/5
f 464/3/5 459/3/5 458/3/5
f 465/3/5 459/3/5 464/3/5
f 466/3/5 459/3/5 465/3/5
f 467/3/5 463/3/5 462/3/5
f 467/3/5 465/3/5 464/3/5
f 467/3/5 464/3/5 463/3/5
f 468/3/5 465/3/5 467/3/5
f 474/3/5 470/3/5 469/3/5
f 475/3/5 470/3/5 474/3/5
f 476/3/5 472/3/5 471/3/5
f 477/3/5 472/3/5 476/3/5
f 479/4/5 474/4/5 473/4/5
f 480/4/5 474/4/5 479/4/5
f 481/4/5 478/4/5 477/4/5
f 482/4/5 478/4/5 481/4/5
f 487/4/5 484/4/5 483/4/5
f 488/4/5 484/4/5 487/4/5
f 491/4/5 486/4/5 485/4/5
f 492/4/5 486/4/5 491/4/5
f 493/3/5 489/3/5 488/3/5
f 494/3/5 489/3/5 493/3/5
f 495/3/5 491/3/5 490/3/5
f 496/3/5 491/3/5 495/3/5
f 501/4/5 498/4/5 497/4/5
f 502/4/5 498/4/5 501/4/5
f 505/4/5 500/4/5 499/4/5
f 506/4/5 500/4/5 505/4/5
f 507/4/5 504/4/5 503/4/5
f 508/4/5 504/4/5 507/4/5
f 513/4/5 510/4/5 509/4/5
f 514/4/5 510/4/5 513/4/5
f 517/4/5 512/4/5 511/4/5
f 518/4/5 512/4/5 517/4/5
f 519/4/5 516/4/5 515/4/5
f 520/4/5 516/4/5 519/4/5
f 523/3/5 522/3/5 521/3/5
f 524/3/5 522/3/5 523/3/5
f 525/4/5 524/4/5 523/4/5
f 526/4/5 524/4/5 525/4/5
f 527/3/5 526/3/5 525/3/5
f 528/3/5 526/3/5 527/3/5
f 529/3/6 530/3/6 531/3/6
f 531/3/6 530/3/6 532/3/6
f 531/4/6 532/4/6 533/4/6
f 533/4/6 532/4/6 534/4/6
f 533/3/6 534/3/6 535/3/6
f 535/3/6 534/3/6 536/3/6
f 537/4/6 538/4/6 541/4/6
f 541/4/6 538/4/6 542/4/6
f 539/4/6 540/4/6 545/4/6
f 545/4/6 540/4/6 546/4/6
f 543/4/6 544/4/6 547/4/6
f 547/4/6 544/4/6 548/4/6
f 549/4/6 550/4/6 553/4/6
f 553/4/6 550/4/6 554/4/6
f 551/4/6 552/4/6 557/4/6
f 557/4/6 552/4/6 558/4/6
f 555/4/6 556/4/6 559/4/6
f 559/4/6 556/4/6 560/4/6
f 561/3/6 562/3/6 566/3/6
f 566/3/6 562/3/6 567/3/6
f 563/3/6 564/3/6 568/3/6
f 568/3/6 564/3/6 569/3/6
f 565/4/6 566/4/6 571/4/6
f 571/4/6 566/4/6 572/4/6
f 569/4/6 570/4/6 573/4/6
f 573/4/6 570/4/6 574/4/6
f 575/4/6 576/4/6 579/4/6
f 579/4/6 576/4/6 580/4/6
f 577/4/6 578/4/6 583/4/6
f 583/4/6 578/4/6 584/4/6
f 580/3/6 581/3/6 585/3/6
f 585/3/6 581/3/6 586/3/6
f 582/3/6 583/3/6 587/3/6
f 587/3/6 583/3/6 588/3/6
f 589/3/6 590/3/6 592/3/6
f 592/3/6 590/3/6 593/3/6
f 593/3/6 590/3/6 594/3/6
f 594/3/6 590/3/6 595/3/6
f 591/3/6 592/3/6 598/3/6
f 592/3/6 593/3/6 598/3/6
f 598/3/6 593/3/6 599/3/6
f 593/4/6 594/4/6 600/4/6
f 599/3/6 593/3/6 600/3/6
f 595/3/6 596/3/6 601/3/6
f 600/4/6 594/4/6 601/4/6
f 594/3/6 595/3/6 601/3/6
f 601/3/6 596/3/6 602/3/6
f 602/3/6 596/3/6 603/3/6
f 599/4/6 600/4/6 605/4/6
f 601/4/6 602/4/6 606/4/6
f 599/4/6 605/4/6 607/4/6
f 605/1/6 606/1/6 607/1/6
f 606/4/6 602/4/6 608/4/6
f 607/1/6 606/1/6 608/1/6
f 597/4/6 598/4/6 609/4/6
f 598/3/6 599/3/6 610/3/6
f 609/4/6 598/4/6 610/4/6
f 599/4/6 607/4/6 611/4/6
f 610/3/6 599/3/6 611/3/6
f 611/4/6 607/4/6 612/4/6
f 608/4/6 602/4/6 613/4/6
f 602/3/6 603/3/6 614/3/6
f 613/4/6 602/4/6 614/4/6
f 603/4/6 604/4/6 615/4/6
f 614/3/6 603/3/6 615/3/6
f 615/4/6 604/4/6 616/4/6
f 611/3/6 612/3/6 617/3/6
f 610/3/6 611/3/6 617/3/6
f 617/3/6 612/3/6 618/3/6
f 612/4/6 613/4/6 619/4/6
f 618/3/6 612/3/6 619/3/6
f 613/3/6 614/3/6 620/3/6
f 619/4/6 613/4/6 620/4/6
f 614/3/6 615/3/6 620/3/6
f 620/3/6 615/3/6 621/3/6
f 621/3/6 615/3/6 622/3/6
f 618/3/6 619/3/6 623/3/6
f 620/3/6 621/3/6 623/3/6
f 619/3/6 620/3/6 623/3/6
f 623/3/6 621/3/6 624/3/6
f 625/3/6 626/3/6 627/3/6
f 627/3/6 626/3/6 628/3/6
f 627/4/6 628/4/6 629/4/6
f 629/4/6 628/4/6 630/4/6
f 629/3/6 630/3/6 631/3/6
f 631/3/6 630/3/6 632/3/6
