# MagicaVoxel @ Ephtracy

# group
o 

# material
mtllib BossGibb3.mtl
usemtl palette

# normals
vn -1 0 0
vn 1 0 0
vn 0 0 1
vn 0 0 -1
vn 0 -1 0
vn 0 1 0

# texcoords
vt 0.708984 0.5
vt 0.716797 0.5
vt 0.994141 0.5

# verts
v -0.1 1.1 0
v -0.1 1.1 -0.1
v -0.1 1.2 0
v -0.1 1.2 -0.1
v 1.49012e-008 0.9 0.2
v 1.49012e-008 0.9 0.1
v 1.49012e-008 0.9 -0.1
v 1.49012e-008 0.9 -0.2
v 1.49012e-008 1 0.2
v 1.49012e-008 1 0.1
v 1.49012e-008 1 -0.1
v 1.49012e-008 1 -0.2
v 1.49012e-008 1.2 0.1
v 1.49012e-008 1.2 0
v 1.49012e-008 1.2 -0.1
v 1.49012e-008 1.2 -0.2
v 1.49012e-008 1.3 0.1
v 1.49012e-008 1.3 0
v 1.49012e-008 1.3 -0.1
v 1.49012e-008 1.3 -0.2
v 0.1 0.8 0
v 0.1 0.8 -0.3
v 0.1 0.9 0.4
v 0.1 0.9 0.2
v 0.1 0.9 -0.1
v 0.1 0.9 -0.2
v 0.1 0.9 -0.3
v 0.1 0.9 -0.4
v 0.1 1 0.3
v 0.1 1 0.2
v 0.1 1 -0.1
v 0.1 1 -0.2
v 0.1 1 -0.3
v 0.1 1 -0.4
v 0.1 1.1 0.3
v 0.1 1.1 0.2
v 0.1 1.1 0.1
v 0.1 1.1 0
v 0.1 1.1 -0.1
v 0.1 1.1 -0.2
v 0.1 1.1 -0.3
v 0.1 1.2 0.3
v 0.1 1.2 0.2
v 0.1 1.2 0.1
v 0.1 1.2 0
v 0.1 1.2 -0.1
v 0.1 1.2 -0.2
v 0.1 1.2 -0.3
v 0.1 1.3 0.4
v 0.1 1.3 0.3
v 0.1 1.3 0.2
v 0.1 1.3 0.1
v 0.1 1.3 0
v 0.1 1.3 -0.1
v 0.1 1.3 -0.2
v 0.1 1.4 0.3
v 0.1 1.4 0.1
v 0.1 1.4 0
v 0.1 1.4 -0.3
v 0.1 1.5 0.1
v 0.1 1.5 0
v 0.2 0.8 0.2
v 0.2 0.8 0.1
v 0.2 0.9 0.2
v 0.2 0.9 0.1
v 0.2 0.9 0
v 0.2 1 0.3
v 0.2 1 0.1
v 0.2 1 -0.1
v 0.2 1 -0.2
v 0.2 1 -0.3
v 0.2 1 -0.4
v 0.2 1 -0.5
v 0.2 1.1 0.3
v 0.2 1.1 0.2
v 0.2 1.1 0.1
v 0.2 1.1 0
v 0.2 1.1 -0.1
v 0.2 1.1 -0.2
v 0.2 1.1 -0.3
v 0.2 1.1 -0.5
v 0.2 1.2 0.2
v 0.2 1.2 0.1
v 0.2 1.2 -0.2
v 0.2 1.2 -0.3
v 0.2 1.3 -0.3
v 0.2 1.3 -0.4
v 0.2 1.4 -0.3
v 0.2 1.4 -0.4
v 0.3 0.8 0.1
v 0.3 0.8 0
v 0.3 0.8 -0.2
v 0.3 0.8 -0.3
v 0.3 0.9 0.1
v 0.3 0.9 0
v 0.3 0.9 -0.2
v 0.3 0.9 -0.3
v 0.3 0.9 -0.4
v 0.3 1 -0.3
v 0.3 1 -0.4
v 0.3 1.2 -0.3
v 0.3 1.2 -0.4
v 0.3 1.3 -0.3
v 0.3 1.3 -0.4
v 0.4 0.8 0
v 0.4 0.8 -0.1
v 0.4 0.8 -0.3
v 0.4 0.8 -0.4
v 0.4 0.9 0.4
v 0.4 0.9 0.2
v 0.4 0.9 0
v 0.4 0.9 -0.1
v 0.4 0.9 -0.3
v 0.4 0.9 -0.4
v 0.4 0.9 -0.5
v 0.4 1 0.4
v 0.4 1 0.2
v 0.4 1 -0.4
v 0.4 1 -0.5
v 0.4 1.1 -0.3
v 0.4 1.1 -0.4
v 0.4 1.2 -0.3
v 0.4 1.2 -0.4
v 0.5 0.8 0.4
v 0.5 0.8 0.3
v 0.5 0.9 0.4
v 0.5 0.9 0.3
v 0.5 0.9 0.1
v 0.5 0.9 0
v 0.5 1 0.2
v 0.5 1 0.1
v 0.5 1 0
v 0.5 1 -0.3
v 0.5 1 -0.4
v 0.5 1.1 0.2
v 0.5 1.1 0.1
v 0.5 1.1 -0.3
v 0.5 1.1 -0.4
v 0.6 0.8 0.2
v 0.6 0.8 0
v 0.6 0.9 0.2
v 0.6 0.9 0.1
v 0.6 0.9 0
v 0.6 1 0.2
v 0.6 1 0.1
v 0.2 0.8 0
v 0.2 0.8 -0.1
v 0.2 0.8 -0.2
v 0.2 0.8 -0.3
v 0.2 0.9 0.4
v 0.2 0.9 0.2
v 0.2 0.9 0
v 0.2 0.9 -0.1
v 0.2 0.9 -0.2
v 0.2 0.9 -0.3
v 0.2 0.9 -0.4
v 0.2 1 0.4
v 0.2 1 0.3
v 0.2 1 0.2
v 0.2 1 -0.3
v 0.2 1 -0.4
v 0.2 1.4 0.1
v 0.2 1.4 0
v 0.2 1.5 0.1
v 0.2 1.5 0
v 0.3 1 -0.4
v 0.3 1 -0.5
v 0.3 1.1 0.4
v 0.3 1.1 0.3
v 0.3 1.1 -0.4
v 0.3 1.1 -0.5
v 0.3 1.3 0.4
v 0.3 1.3 0.3
v 0.3 1.3 0.2
v 0.3 1.4 0.3
v 0.3 1.4 0.2
v 0.4 0.8 0.2
v 0.4 0.8 0.1
v 0.4 0.8 0
v 0.4 0.9 0.2
v 0.4 0.9 0.1
v 0.4 0.9 0
v 0.4 1 0.2
v 0.4 1 0.1
v 0.4 1 0
v 0.4 1 -0.3
v 0.4 1 -0.4
v 0.4 1.1 0.2
v 0.4 1.1 0.1
v 0.4 1.1 -0.3
v 0.4 1.1 -0.4
v 0.4 1.2 0.3
v 0.4 1.2 -0.4
v 0.4 1.3 0.3
v 0.4 1.3 0.2
v 0.4 1.4 0.2
v 0.4 1.4 -0.4
v 0.5 0.8 -0.1
v 0.5 0.8 -0.2
v 0.5 0.9 -0.1
v 0.5 0.9 -0.2
v 0.5 0.9 -0.4
v 0.5 0.9 -0.5
v 0.5 1 0.4
v 0.5 1 0.3
v 0.5 1 -0.4
v 0.5 1 -0.5
v 0.5 1.1 0.4
v 0.5 1.1 0.3
v 0.5 1.1 0.2
v 0.5 1.1 -0.3
v 0.5 1.1 -0.4
v 0.5 1.2 0.3
v 0.5 1.2 0.2
v 0.5 1.2 -0.3
v 0.5 1.2 -0.4
v 0.6 0.8 0.4
v 0.6 0.8 0.3
v 0.6 0.8 0
v 0.6 0.8 -0.1
v 0.6 0.8 -0.3
v 0.6 0.8 -0.4
v 0.6 0.9 0.4
v 0.6 0.9 0.3
v 0.6 0.9 0
v 0.6 0.9 -0.1
v 0.6 0.9 -0.3
v 0.6 0.9 -0.4
v 0.6 1 0.4
v 0.6 1 0.3
v 0.6 1 0.2
v 0.6 1 0
v 0.6 1 -0.4
v 0.6 1.1 0.3
v 0.6 1.1 0.2
v 0.6 1.1 0
v 0.6 1.1 -0.3
v 0.6 1.1 -0.4
v 0.6 1.2 0.2
v 0.6 1.2 -0.3
v 0.7 0.8 0.2
v 0.7 0.8 0
v 0.7 0.8 -0.2
v 0.7 0.8 -0.3
v 0.7 0.9 0.3
v 0.7 0.9 0.2
v 0.7 0.9 0
v 0.7 0.9 -0.2
v 0.7 0.9 -0.3
v 0.7 0.9 -0.4
v 0.7 1 0.3
v 0.7 1 0.2
v 0.7 1 -0.2
v 0.7 1 -0.4
v 0.8 0.9 0.2
v 0.8 0.9 -0.2
v 0.8 1 0.2
v 0.8 1 -0.2
v 0.1 0.9 0.4
v 0.1 1.3 0.4
v 0.2 0.9 0.4
v 0.2 1 0.4
v 0.3 1.1 0.4
v 0.3 1.3 0.4
v 0.4 0.9 0.4
v 0.4 1 0.4
v 0.5 0.8 0.4
v 0.5 0.9 0.4
v 0.5 1 0.4
v 0.5 1.1 0.4
v 0.6 0.8 0.4
v 0.6 0.9 0.4
v 0.6 1 0.4
v 0.1 1.3 0.3
v 0.1 1.4 0.3
v 0.3 1.1 0.3
v 0.3 1.3 0.3
v 0.3 1.4 0.3
v 0.4 1.2 0.3
v 0.4 1.3 0.3
v 0.5 1 0.3
v 0.5 1.1 0.3
v 0.5 1.2 0.3
v 0.6 0.9 0.3
v 0.6 1 0.3
v 0.6 1.1 0.3
v 0.7 0.9 0.3
v 0.7 1 0.3
v 1.49012e-008 0.9 0.2
v 1.49012e-008 1 0.2
v 0.1 0.9 0.2
v 0.1 1 0.2
v 0.2 0.8 0.2
v 0.2 0.9 0.2
v 0.2 1 0.2
v 0.3 1 0.2
v 0.3 1.3 0.2
v 0.3 1.4 0.2
v 0.4 0.8 0.2
v 0.4 0.9 0.2
v 0.4 1 0.2
v 0.4 1.3 0.2
v 0.4 1.4 0.2
v 0.5 1.1 0.2
v 0.5 1.2 0.2
v 0.6 0.8 0.2
v 0.6 0.9 0.2
v 0.6 1.1 0.2
v 0.6 1.2 0.2
v 0.7 0.8 0.2
v 0.7 0.9 0.2
v 0.7 1 0.2
v 0.8 0.9 0.2
v 0.8 1 0.2
v 1.49012e-008 1.2 0.1
v 1.49012e-008 1.3 0.1
v 0.1 1.1 0.1
v 0.1 1.2 0.1
v 0.1 1.3 0.1
v 0.1 1.4 0.1
v 0.1 1.5 0.1
v 0.2 1.1 0.1
v 0.2 1.2 0.1
v 0.2 1.4 0.1
v 0.2 1.5 0.1
v 0.4 1 0.1
v 0.4 1.1 0.1
v 0.5 0.9 0.1
v 0.5 1 0.1
v 0.5 1.1 0.1
v 0.6 0.9 0.1
v 0.6 1 0.1
v -0.1 1.1 0
v -0.1 1.2 0
v 1.49012e-008 1.2 0
v 0.1 0.8 0
v 0.1 1.1 0
v 0.1 1.2 0
v 0.2 0.8 0
v 0.2 0.9 0
v 0.2 1.1 0
v 0.4 0.8 0
v 0.4 0.9 0
v 0.4 1 0
v 0.5 0.9 0
v 0.5 1 0
v 0.6 0.8 0
v 0.6 0.9 0
v 1.49012e-008 0.9 -0.1
v 1.49012e-008 1 -0.1
v 1.49012e-008 1.2 -0.1
v 1.49012e-008 1.3 -0.1
v 0.1 0.9 -0.1
v 0.1 1 -0.1
v 0.1 1.2 -0.1
v 0.1 1.3 -0.1
v 0.2 0.8 -0.1
v 0.2 0.9 -0.1
v 0.4 0.8 -0.1
v 0.4 0.9 -0.1
v 0.1 1 -0.2
v 0.1 1.1 -0.2
v 0.2 1 -0.2
v 0.2 1.1 -0.2
v 0.5 0.8 -0.2
v 0.5 0.9 -0.2
v 0.6 0.9 -0.2
v 0.7 0.8 -0.2
v 0.7 0.9 -0.2
v 0.1 1 0.3
v 0.1 1.1 0.3
v 0.2 1 0.3
v 0.2 1.1 0.3
v 0.5 0.8 0.3
v 0.5 0.9 0.3
v 0.6 0.8 0.3
v 0.6 0.9 0.3
v 0.1 1.1 0.2
v 0.1 1.2 0.2
v 0.2 1.1 0.2
v 0.2 1.2 0.2
v 0.4 0.9 0.2
v 0.4 1 0.2
v 0.4 1.1 0.2
v 0.5 1 0.2
v 0.5 1.1 0.2
v 0.6 0.9 0.2
v 0.6 1 0.2
v 1.49012e-008 0.9 0.1
v 1.49012e-008 1 0.1
v 0.1 0.9 0.1
v 0.1 1 0.1
v 0.2 0.8 0.1
v 0.2 0.9 0.1
v 0.2 1 0.1
v 0.3 0.8 0.1
v 0.3 0.9 0.1
v 1.49012e-008 1.2 0
v 1.49012e-008 1.3 0
v 0.1 1.2 0
v 0.1 1.3 0
v 0.1 1.4 0
v 0.1 1.5 0
v 0.2 1.4 0
v 0.2 1.5 0
v 0.3 0.8 0
v 0.3 0.9 0
v 0.4 0.8 0
v 0.4 0.9 0
v 0.6 0.8 0
v 0.6 0.9 0
v 0.7 0.8 0
v 0.7 0.9 0
v -0.1 1.1 -0.1
v -0.1 1.2 -0.1
v 1.49012e-008 1.2 -0.1
v 0.1 1 -0.1
v 0.1 1.1 -0.1
v 0.1 1.2 -0.1
v 0.2 1 -0.1
v 0.2 1.1 -0.1
v 0.5 0.8 -0.1
v 0.5 0.9 -0.1
v 0.6 0.8 -0.1
v 0.6 0.9 -0.1
v 1.49012e-008 0.9 -0.2
v 1.49012e-008 1 -0.2
v 1.49012e-008 1.2 -0.2
v 1.49012e-008 1.3 -0.2
v 0.1 0.9 -0.2
v 0.1 1 -0.2
v 0.1 1.1 -0.2
v 0.1 1.2 -0.2
v 0.1 1.3 -0.2
v 0.2 0.8 -0.2
v 0.2 0.9 -0.2
v 0.2 1.1 -0.2
v 0.2 1.2 -0.2
v 0.3 0.8 -0.2
v 0.3 0.9 -0.2
v 0.7 0.9 -0.2
v 0.7 1 -0.2
v 0.8 0.9 -0.2
v 0.8 1 -0.2
v 0.1 0.8 -0.3
v 0.1 0.9 -0.3
v 0.1 1 -0.3
v 0.1 1.1 -0.3
v 0.1 1.2 -0.3
v 0.1 1.4 -0.3
v 0.2 0.8 -0.3
v 0.2 0.9 -0.3
v 0.2 1 -0.3
v 0.2 1.1 -0.3
v 0.2 1.2 -0.3
v 0.2 1.3 -0.3
v 0.2 1.4 -0.3
v 0.3 0.8 -0.3
v 0.3 0.9 -0.3
v 0.3 1 -0.3
v 0.3 1.2 -0.3
v 0.3 1.3 -0.3
v 0.4 0.8 -0.3
v 0.4 0.9 -0.3
v 0.4 1 -0.3
v 0.4 1.1 -0.3
v 0.4 1.2 -0.3
v 0.5 1 -0.3
v 0.5 1.1 -0.3
v 0.5 1.2 -0.3
v 0.6 0.8 -0.3
v 0.6 0.9 -0.3
v 0.6 1.1 -0.3
v 0.6 1.2 -0.3
v 0.7 0.8 -0.3
v 0.7 0.9 -0.3
v 0.1 0.9 -0.4
v 0.1 1 -0.4
v 0.2 0.9 -0.4
v 0.2 1 -0.4
v 0.2 1.3 -0.4
v 0.2 1.4 -0.4
v 0.3 0.9 -0.4
v 0.3 1 -0.4
v 0.3 1.1 -0.4
v 0.3 1.2 -0.4
v 0.3 1.3 -0.4
v 0.4 0.8 -0.4
v 0.4 0.9 -0.4
v 0.4 1 -0.4
v 0.4 1.1 -0.4
v 0.4 1.2 -0.4
v 0.4 1.4 -0.4
v 0.5 0.9 -0.4
v 0.5 1 -0.4
v 0.5 1.1 -0.4
v 0.5 1.2 -0.4
v 0.6 0.8 -0.4
v 0.6 0.9 -0.4
v 0.6 1 -0.4
v 0.6 1.1 -0.4
v 0.7 0.9 -0.4
v 0.7 1 -0.4
v 0.2 1 -0.5
v 0.2 1.1 -0.5
v 0.3 1 -0.5
v 0.3 1.1 -0.5
v 0.4 0.9 -0.5
v 0.4 1 -0.5
v 0.5 0.9 -0.5
v 0.5 1 -0.5
v 0.5 0.8 0.4
v 0.6 0.8 0.4
v 0.5 0.8 0.3
v 0.6 0.8 0.3
v 0.2 0.8 0.2
v 0.4 0.8 0.2
v 0.6 0.8 0.2
v 0.7 0.8 0.2
v 0.2 0.8 0.1
v 0.3 0.8 0.1
v 0.4 0.8 0.1
v 0.1 0.8 0
v 0.2 0.8 0
v 0.3 0.8 0
v 0.4 0.8 0
v 0.6 0.8 0
v 0.7 0.8 0
v 0.2 0.8 -0.1
v 0.4 0.8 -0.1
v 0.5 0.8 -0.1
v 0.6 0.8 -0.1
v 0.2 0.8 -0.2
v 0.3 0.8 -0.2
v 0.5 0.8 -0.2
v 0.7 0.8 -0.2
v 0.1 0.8 -0.3
v 0.2 0.8 -0.3
v 0.3 0.8 -0.3
v 0.4 0.8 -0.3
v 0.6 0.8 -0.3
v 0.7 0.8 -0.3
v 0.4 0.8 -0.4
v 0.6 0.8 -0.4
v 0.1 0.9 0.4
v 0.2 0.9 0.4
v 0.4 0.9 0.4
v 0.5 0.9 0.4
v 0.5 0.9 0.3
v 0.6 0.9 0.3
v 0.7 0.9 0.3
v 1.49012e-008 0.9 0.2
v 0.1 0.9 0.2
v 0.2 0.9 0.2
v 0.4 0.9 0.2
v 0.6 0.9 0.2
v 0.7 0.9 0.2
v 0.8 0.9 0.2
v 1.49012e-008 0.9 0.1
v 0.1 0.9 0.1
v 0.2 0.9 0.1
v 0.3 0.9 0.1
v 0.5 0.9 0.1
v 0.6 0.9 0.1
v 0.2 0.9 0
v 0.3 0.9 0
v 0.4 0.9 0
v 0.5 0.9 0
v 0.6 0.9 0
v 0.7 0.9 0
v 1.49012e-008 0.9 -0.1
v 0.1 0.9 -0.1
v 0.2 0.9 -0.1
v 0.4 0.9 -0.1
v 0.5 0.9 -0.1
v 0.6 0.9 -0.1
v 1.49012e-008 0.9 -0.2
v 0.1 0.9 -0.2
v 0.2 0.9 -0.2
v 0.3 0.9 -0.2
v 0.5 0.9 -0.2
v 0.6 0.9 -0.2
v 0.7 0.9 -0.2
v 0.8 0.9 -0.2
v 0.1 0.9 -0.3
v 0.2 0.9 -0.3
v 0.3 0.9 -0.3
v 0.4 0.9 -0.3
v 0.6 0.9 -0.3
v 0.7 0.9 -0.3
v 0.1 0.9 -0.4
v 0.2 0.9 -0.4
v 0.3 0.9 -0.4
v 0.4 0.9 -0.4
v 0.5 0.9 -0.4
v 0.6 0.9 -0.4
v 0.7 0.9 -0.4
v 0.4 0.9 -0.5
v 0.5 0.9 -0.5
v 0.2 1 0.4
v 0.4 1 0.4
v 0.2 1 0.3
v 0.3 1 0.3
v 0.2 1 0.2
v 0.3 1 0.2
v 0.4 1 0.2
v 0.5 1 0.2
v 0.6 1 0.2
v 0.4 1 0.1
v 0.5 1 0.1
v 0.6 1 0.1
v 0.4 1 0
v 0.5 1 0
v 0.2 1 -0.3
v 0.3 1 -0.3
v 0.2 1 -0.4
v 0.3 1 -0.4
v 0.2 1 -0.5
v 0.3 1 -0.5
v 0.1 1.1 0.3
v 0.2 1.1 0.3
v 0.1 1.1 0.2
v 0.2 1.1 0.2
v 0.4 1.1 0.2
v 0.5 1.1 0.2
v 0.1 1.1 0.1
v 0.2 1.1 0.1
v 0.4 1.1 0.1
v 0.5 1.1 0.1
v -0.1 1.1 0
v 0.1 1.1 0
v 0.2 1.1 0
v -0.1 1.1 -0.1
v 0.1 1.1 -0.1
v 0.2 1.1 -0.1
v 0.1 1.1 -0.2
v 0.2 1.1 -0.2
v 0.4 1.1 -0.3
v 0.5 1.1 -0.3
v 0.4 1.1 -0.4
v 0.5 1.1 -0.4
v 0.1 1.2 0.2
v 0.2 1.2 0.2
v 1.49012e-008 1.2 0.1
v 0.1 1.2 0.1
v 0.2 1.2 0.1
v 1.49012e-008 1.2 0
v 0.1 1.2 0
v 1.49012e-008 1.2 -0.1
v 0.1 1.2 -0.1
v 1.49012e-008 1.2 -0.2
v 0.1 1.2 -0.2
v 0.2 1.2 -0.2
v 0.1 1.2 -0.3
v 0.2 1.2 -0.3
v 0.3 1.2 -0.3
v 0.4 1.2 -0.3
v 0.3 1.2 -0.4
v 0.4 1.2 -0.4
v 0.2 1.3 -0.3
v 0.3 1.3 -0.3
v 0.2 1.3 -0.4
v 0.3 1.3 -0.4
v 0.5 1 0.4
v 0.6 1 0.4
v 0.1 1 0.3
v 0.2 1 0.3
v 0.5 1 0.3
v 0.6 1 0.3
v 0.7 1 0.3
v 1.49012e-008 1 0.2
v 0.1 1 0.2
v 0.6 1 0.2
v 0.7 1 0.2
v 0.8 1 0.2
v 1.49012e-008 1 0.1
v 0.1 1 0.1
v 0.2 1 0.1
v 0.6 1 0
v 1.49012e-008 1 -0.1
v 0.1 1 -0.1
v 0.2 1 -0.1
v 1.49012e-008 1 -0.2
v 0.1 1 -0.2
v 0.2 1 -0.2
v 0.7 1 -0.2
v 0.8 1 -0.2
v 0.1 1 -0.3
v 0.2 1 -0.3
v 0.4 1 -0.3
v 0.5 1 -0.3
v 0.1 1 -0.4
v 0.2 1 -0.4
v 0.4 1 -0.4
v 0.5 1 -0.4
v 0.6 1 -0.4
v 0.7 1 -0.4
v 0.4 1 -0.5
v 0.5 1 -0.5
v 0.3 1.1 0.4
v 0.5 1.1 0.4
v 0.3 1.1 0.3
v 0.5 1.1 0.3
v 0.6 1.1 0.3
v 0.5 1.1 0.2
v 0.6 1.1 0.2
v 0.1 1.1 -0.2
v 0.2 1.1 -0.2
v 0.1 1.1 -0.3
v 0.2 1.1 -0.3
v 0.4 1.1 -0.3
v 0.5 1.1 -0.3
v 0.6 1.1 -0.3
v 0.3 1.1 -0.4
v 0.4 1.1 -0.4
v 0.5 1.1 -0.4
v 0.6 1.1 -0.4
v 0.2 1.1 -0.5
v 0.3 1.1 -0.5
v 0.4 1.2 0.3
v 0.5 1.2 0.3
v 0.5 1.2 0.2
v 0.6 1.2 0.2
v -0.1 1.2 0
v 1.49012e-008 1.2 0
v 0.1 1.2 0
v -0.1 1.2 -0.1
v 1.49012e-008 1.2 -0.1
v 0.1 1.2 -0.1
v 0.5 1.2 -0.3
v 0.6 1.2 -0.3
v 0.4 1.2 -0.4
v 0.5 1.2 -0.4
v 0.1 1.3 0.4
v 0.3 1.3 0.4
v 0.1 1.3 0.3
v 0.3 1.3 0.3
v 0.4 1.3 0.3
v 0.3 1.3 0.2
v 0.4 1.3 0.2
v 1.49012e-008 1.3 0.1
v 0.1 1.3 0.1
v 1.49012e-008 1.3 0
v 0.1 1.3 0
v 1.49012e-008 1.3 -0.1
v 0.1 1.3 -0.1
v 1.49012e-008 1.3 -0.2
v 0.1 1.3 -0.2
v 0.1 1.4 0.3
v 0.3 1.4 0.3
v 0.3 1.4 0.2
v 0.4 1.4 0.2
v 0.1 1.4 0.1
v 0.2 1.4 0.1
v 0.1 1.4 0
v 0.2 1.4 0
v 0.1 1.4 -0.3
v 0.2 1.4 -0.3
v 0.2 1.4 -0.4
v 0.4 1.4 -0.4
v 0.1 1.5 0.1
v 0.2 1.5 0.1
v 0.1 1.5 0
v 0.2 1.5 0

# faces
f 3/1/1 2/1/1 1/1/1
f 4/1/1 2/1/1 3/1/1
f 9/1/1 6/1/1 5/1/1
f 10/1/1 6/1/1 9/1/1
f 11/1/1 8/1/1 7/1/1
f 12/1/1 8/1/1 11/1/1
f 17/1/1 14/1/1 13/1/1
f 18/1/1 14/1/1 17/1/1
f 19/1/1 16/1/1 15/1/1
f 20/1/1 16/1/1 19/1/1
f 25/1/1 22/1/1 21/1/1
f 26/1/1 22/1/1 25/1/1
f 27/1/1 22/1/1 26/1/1
f 29/2/1 24/2/1 23/2/1
f 30/2/1 24/2/1 29/2/1
f 31/1/1 25/1/1 21/1/1
f 32/1/1 28/1/1 27/1/1
f 32/1/1 27/1/1 26/1/1
f 33/1/1 28/1/1 32/1/1
f 34/1/1 28/1/1 33/1/1
f 35/2/1 29/2/1 23/2/1
f 38/1/1 31/1/1 21/1/1
f 39/1/1 31/1/1 38/1/1
f 40/1/1 33/1/1 32/1/1
f 41/1/1 33/1/1 40/1/1
f 42/1/1 36/1/1 35/1/1
f 42/2/1 35/2/1 23/2/1
f 43/1/1 36/1/1 42/1/1
f 44/1/1 38/1/1 37/1/1
f 45/1/1 38/1/1 44/1/1
f 46/1/1 40/1/1 39/1/1
f 47/1/1 40/1/1 46/1/1
f 49/2/1 43/2/1 42/2/1
f 49/2/1 42/2/1 23/2/1
f 50/2/1 43/2/1 49/2/1
f 51/1/1 44/1/1 43/1/1
f 51/2/1 43/2/1 50/2/1
f 52/1/1 44/1/1 51/1/1
f 53/1/1 46/1/1 45/1/1
f 54/1/1 46/1/1 53/1/1
f 55/1/1 48/1/1 47/1/1
f 56/2/1 52/2/1 51/2/1
f 56/2/1 51/2/1 50/2/1
f 56/2/1 53/2/1 52/2/1
f 57/2/1 53/2/1 56/2/1
f 58/1/1 54/1/1 53/1/1
f 58/2/1 53/2/1 57/2/1
f 58/1/1 55/1/1 54/1/1
f 59/1/1 48/1/1 55/1/1
f 59/1/1 55/1/1 58/1/1
f 60/2/1 58/2/1 57/2/1
f 61/2/1 58/2/1 60/2/1
f 64/3/1 63/3/1 62/3/1
f 65/3/1 63/3/1 64/3/1
f 68/1/1 66/1/1 65/1/1
f 74/1/1 68/1/1 67/1/1
f 75/1/1 68/1/1 74/1/1
f 76/1/1 66/1/1 68/1/1
f 76/1/1 68/1/1 75/1/1
f 77/1/1 66/1/1 76/1/1
f 78/1/1 70/1/1 69/1/1
f 79/1/1 70/1/1 78/1/1
f 80/1/1 73/1/1 72/1/1
f 80/1/1 72/1/1 71/1/1
f 81/1/1 73/1/1 80/1/1
f 82/1/1 76/1/1 75/1/1
f 83/1/1 76/1/1 82/1/1
f 84/1/1 80/1/1 79/1/1
f 85/1/1 80/1/1 84/1/1
f 88/2/1 87/2/1 86/2/1
f 89/2/1 87/2/1 88/2/1
f 94/1/1 91/1/1 90/1/1
f 95/1/1 91/1/1 94/1/1
f 96/1/1 93/1/1 92/1/1
f 97/1/1 93/1/1 96/1/1
f 99/1/1 98/1/1 97/1/1
f 100/1/1 98/1/1 99/1/1
f 103/2/1 102/2/1 101/2/1
f 104/2/1 102/2/1 103/2/1
f 111/1/1 106/1/1 105/1/1
f 112/1/1 106/1/1 111/1/1
f 113/1/1 108/1/1 107/1/1
f 114/1/1 108/1/1 113/1/1
f 116/2/1 110/2/1 109/2/1
f 117/2/1 110/2/1 116/2/1
f 118/1/1 115/1/1 114/1/1
f 119/1/1 115/1/1 118/1/1
f 122/2/1 121/2/1 120/2/1
f 123/2/1 121/2/1 122/2/1
f 126/1/1 125/1/1 124/1/1
f 127/1/1 125/1/1 126/1/1
f 131/1/1 129/1/1 128/1/1
f 132/1/1 129/1/1 131/1/1
f 135/1/1 131/1/1 130/1/1
f 136/1/1 131/1/1 135/1/1
f 137/2/1 134/2/1 133/2/1
f 138/2/1 134/2/1 137/2/1
f 141/1/1 140/1/1 139/1/1
f 142/1/1 140/1/1 141/1/1
f 143/1/1 140/1/1 142/1/1
f 144/2/1 142/2/1 141/2/1
f 145/2/1 142/2/1 144/2/1
f 146/1/2 147/1/2 152/1/2
f 152/1/2 147/1/2 153/1/2
f 148/1/2 149/1/2 154/1/2
f 154/1/2 149/1/2 155/1/2
f 150/2/2 151/2/2 157/2/2
f 157/2/2 151/2/2 158/2/2
f 158/2/2 151/2/2 159/2/2
f 155/1/2 156/1/2 160/1/2
f 160/1/2 156/1/2 161/1/2
f 162/2/2 163/2/2 164/2/2
f 164/2/2 163/2/2 165/2/2
f 166/1/2 167/1/2 170/1/2
f 170/1/2 167/1/2 171/1/2
f 168/2/2 169/2/2 172/2/2
f 172/2/2 169/2/2 173/2/2
f 173/2/2 174/2/2 175/2/2
f 175/2/2 174/2/2 176/2/2
f 177/3/2 178/3/2 180/3/2
f 178/1/2 179/1/2 181/1/2
f 180/3/2 178/3/2 181/3/2
f 181/1/2 179/1/2 182/1/2
f 180/3/2 181/3/2 183/3/2
f 181/2/2 182/2/2 184/2/2
f 183/3/2 181/3/2 184/3/2
f 184/2/2 182/2/2 185/2/2
f 183/1/2 184/1/2 188/1/2
f 188/1/2 184/1/2 189/1/2
f 186/1/2 187/1/2 190/1/2
f 190/1/2 187/1/2 191/1/2
f 192/2/2 193/2/2 194/2/2
f 194/2/2 193/2/2 195/2/2
f 195/2/2 193/2/2 196/2/2
f 196/2/2 193/2/2 197/2/2
f 198/1/2 199/1/2 200/1/2
f 200/1/2 199/1/2 201/1/2
f 202/1/2 203/1/2 206/1/2
f 206/1/2 203/1/2 207/1/2
f 204/2/2 205/2/2 208/2/2
f 208/2/2 205/2/2 209/2/2
f 209/2/2 210/2/2 213/2/2
f 213/2/2 210/2/2 214/2/2
f 211/2/2 212/2/2 215/2/2
f 215/2/2 212/2/2 216/2/2
f 217/1/2 218/1/2 223/1/2
f 223/1/2 218/1/2 224/1/2
f 219/1/2 220/1/2 225/1/2
f 225/1/2 220/1/2 226/1/2
f 221/1/2 222/1/2 227/1/2
f 227/1/2 222/1/2 228/1/2
f 223/2/2 224/2/2 229/2/2
f 229/2/2 224/2/2 230/2/2
f 230/2/2 231/2/2 234/2/2
f 231/1/2 232/1/2 235/1/2
f 234/2/2 231/2/2 235/2/2
f 232/2/2 233/2/2 236/2/2
f 235/1/2 232/1/2 236/1/2
f 236/2/2 233/2/2 237/2/2
f 237/2/2 233/2/2 238/2/2
f 235/2/2 236/2/2 239/2/2
f 236/2/2 237/2/2 239/2/2
f 239/2/2 237/2/2 240/2/2
f 241/1/2 242/1/2 246/1/2
f 246/1/2 242/1/2 247/1/2
f 243/1/2 244/1/2 248/1/2
f 248/1/2 244/1/2 249/1/2
f 245/2/2 246/2/2 251/2/2
f 251/2/2 246/2/2 252/2/2
f 249/2/2 250/2/2 253/2/2
f 248/2/2 249/2/2 253/2/2
f 253/2/2 250/2/2 254/2/2
f 255/2/2 256/2/2 257/2/2
f 257/2/2 256/2/2 258/2/2
f 261/2/3 260/2/3 259/2/3
f 262/2/3 260/2/3 261/2/3
f 263/2/3 260/2/3 262/2/3
f 264/2/3 260/2/3 263/2/3
f 266/2/3 263/2/3 262/2/3
f 268/2/3 266/2/3 265/2/3
f 269/2/3 263/2/3 266/2/3
f 269/2/3 266/2/3 268/2/3
f 270/2/3 263/2/3 269/2/3
f 271/1/3 268/1/3 267/1/3
f 272/2/3 269/2/3 268/2/3
f 272/1/3 268/1/3 271/1/3
f 273/2/3 269/2/3 272/2/3
f 277/2/3 275/2/3 274/2/3
f 278/2/3 275/2/3 277/2/3
f 279/2/3 277/2/3 276/2/3
f 280/2/3 277/2/3 279/2/3
f 282/2/3 279/2/3 276/2/3
f 283/2/3 279/2/3 282/2/3
f 285/2/3 282/2/3 281/2/3
f 286/2/3 282/2/3 285/2/3
f 287/2/3 285/2/3 284/2/3
f 288/2/3 285/2/3 287/2/3
f 291/1/3 290/1/3 289/1/3
f 292/1/3 290/1/3 291/1/3
f 296/3/3 294/3/3 293/3/3
f 296/3/3 295/3/3 294/3/3
f 299/3/3 296/3/3 293/3/3
f 300/3/3 296/3/3 299/3/3
f 301/3/3 296/3/3 300/3/3
f 302/2/3 298/2/3 297/2/3
f 303/2/3 298/2/3 302/2/3
f 308/2/3 305/2/3 304/2/3
f 309/2/3 305/2/3 308/2/3
f 310/1/3 307/1/3 306/1/3
f 311/1/3 307/1/3 310/1/3
f 313/2/3 312/2/3 311/2/3
f 314/2/3 312/2/3 313/2/3
f 318/1/3 316/1/3 315/1/3
f 319/1/3 316/1/3 318/1/3
f 322/1/3 318/1/3 317/1/3
f 323/1/3 318/1/3 322/1/3
f 324/2/3 321/2/3 320/2/3
f 325/2/3 321/2/3 324/2/3
f 329/1/3 327/1/3 326/1/3
f 330/1/3 327/1/3 329/1/3
f 331/1/3 329/1/3 328/1/3
f 332/1/3 329/1/3 331/1/3
f 335/1/3 334/1/3 333/1/3
f 337/1/3 335/1/3 333/1/3
f 338/1/3 335/1/3 337/1/3
f 339/1/3 337/1/3 336/1/3
f 340/1/3 337/1/3 339/1/3
f 341/1/3 337/1/3 340/1/3
f 345/1/3 343/1/3 342/1/3
f 345/1/3 344/1/3 343/1/3
f 346/1/3 344/1/3 345/1/3
f 347/1/3 345/1/3 342/1/3
f 348/1/3 345/1/3 347/1/3
f 353/1/3 350/1/3 349/1/3
f 354/1/3 350/1/3 353/1/3
f 355/1/3 352/1/3 351/1/3
f 356/1/3 352/1/3 355/1/3
f 359/1/3 358/1/3 357/1/3
f 360/1/3 358/1/3 359/1/3
f 363/1/3 362/1/3 361/1/3
f 364/1/3 362/1/3 363/1/3
f 367/1/3 366/1/3 365/1/3
f 368/1/3 367/1/3 365/1/3
f 369/1/3 367/1/3 368/1/3
f 370/2/4 371/2/4 372/2/4
f 372/2/4 371/2/4 373/2/4
f 374/1/4 375/1/4 376/1/4
f 376/1/4 375/1/4 377/1/4
f 378/1/4 379/1/4 380/1/4
f 380/1/4 379/1/4 381/1/4
f 382/2/4 383/2/4 385/2/4
f 383/2/4 384/2/4 385/2/4
f 385/2/4 384/2/4 386/2/4
f 382/2/4 385/2/4 387/2/4
f 387/2/4 385/2/4 388/2/4
f 389/1/4 390/1/4 391/1/4
f 391/1/4 390/1/4 392/1/4
f 391/2/4 392/2/4 394/2/4
f 394/2/4 392/2/4 395/2/4
f 393/3/4 394/3/4 396/3/4
f 396/3/4 394/3/4 397/3/4
f 398/1/4 399/1/4 400/1/4
f 400/1/4 399/1/4 401/1/4
f 402/2/4 403/2/4 404/2/4
f 404/2/4 403/2/4 405/2/4
f 406/1/4 407/1/4 408/1/4
f 408/1/4 407/1/4 409/1/4
f 410/1/4 411/1/4 412/1/4
f 412/1/4 411/1/4 413/1/4
f 414/1/4 415/1/4 416/1/4
f 414/1/4 416/1/4 418/1/4
f 418/1/4 416/1/4 419/1/4
f 417/1/4 418/1/4 420/1/4
f 420/1/4 418/1/4 421/1/4
f 422/1/4 423/1/4 424/1/4
f 424/1/4 423/1/4 425/1/4
f 426/1/4 427/1/4 430/1/4
f 430/1/4 427/1/4 431/1/4
f 428/1/4 429/1/4 433/1/4
f 433/1/4 429/1/4 434/1/4
f 432/1/4 433/1/4 437/1/4
f 437/1/4 433/1/4 438/1/4
f 435/1/4 436/1/4 439/1/4
f 439/1/4 436/1/4 440/1/4
f 441/2/4 442/2/4 443/2/4
f 443/2/4 442/2/4 444/2/4
f 445/1/4 446/1/4 451/1/4
f 451/1/4 446/1/4 452/1/4
f 447/1/4 448/1/4 453/1/4
f 453/1/4 448/1/4 454/1/4
f 449/1/4 450/1/4 455/1/4
f 455/1/4 450/1/4 456/1/4
f 456/1/4 450/1/4 457/1/4
f 452/1/4 453/1/4 459/1/4
f 459/1/4 453/1/4 460/1/4
f 455/1/4 456/1/4 461/1/4
f 454/1/4 455/1/4 461/1/4
f 461/1/4 456/1/4 462/1/4
f 458/1/4 459/1/4 463/1/4
f 463/1/4 459/1/4 464/1/4
f 454/1/4 461/1/4 466/1/4
f 466/1/4 461/1/4 467/1/4
f 465/1/4 466/1/4 468/1/4
f 468/1/4 466/1/4 469/1/4
f 469/2/4 470/2/4 473/2/4
f 473/2/4 470/2/4 474/2/4
f 471/1/4 472/1/4 475/1/4
f 475/1/4 472/1/4 476/1/4
f 477/1/4 478/1/4 479/1/4
f 479/1/4 478/1/4 480/1/4
f 481/2/4 482/2/4 487/2/4
f 484/1/4 485/1/4 489/1/4
f 483/1/4 484/1/4 489/1/4
f 489/1/4 485/1/4 490/1/4
f 490/1/4 485/1/4 491/1/4
f 486/2/4 487/2/4 492/2/4
f 487/2/4 482/2/4 493/2/4
f 492/2/4 487/2/4 493/2/4
f 488/1/4 489/1/4 494/1/4
f 491/2/4 492/2/4 496/2/4
f 496/2/4 492/2/4 497/2/4
f 488/1/4 494/1/4 498/1/4
f 494/2/4 495/2/4 499/2/4
f 498/1/4 494/1/4 499/1/4
f 495/2/4 496/2/4 499/2/4
f 499/2/4 496/2/4 500/2/4
f 500/2/4 496/2/4 501/2/4
f 499/2/4 500/2/4 502/2/4
f 502/2/4 500/2/4 503/2/4
f 504/1/4 505/1/4 506/1/4
f 506/1/4 505/1/4 507/1/4
f 508/1/4 509/1/4 510/1/4
f 510/1/4 509/1/4 511/1/4
f 514/1/5 513/1/5 512/1/5
f 515/1/5 513/1/5 514/1/5
f 520/3/5 517/3/5 516/3/5
f 521/3/5 517/3/5 520/3/5
f 522/3/5 517/3/5 521/3/5
f 525/1/5 522/1/5 521/1/5
f 526/1/5 522/1/5 525/1/5
f 527/1/5 519/1/5 518/1/5
f 528/1/5 519/1/5 527/1/5
f 529/1/5 524/1/5 523/1/5
f 530/1/5 527/1/5 526/1/5
f 531/1/5 527/1/5 530/1/5
f 532/1/5 527/1/5 531/1/5
f 533/1/5 529/1/5 523/1/5
f 533/1/5 530/1/5 529/1/5
f 533/1/5 531/1/5 530/1/5
f 534/1/5 531/1/5 533/1/5
f 535/1/5 531/1/5 534/1/5
f 537/1/5 533/1/5 523/1/5
f 538/1/5 533/1/5 537/1/5
f 539/1/5 535/1/5 534/1/5
f 539/1/5 536/1/5 535/1/5
f 540/1/5 536/1/5 539/1/5
f 541/1/5 536/1/5 540/1/5
f 542/1/5 536/1/5 541/1/5
f 543/1/5 541/1/5 540/1/5
f 544/1/5 541/1/5 543/1/5
f 549/2/5 548/2/5 547/2/5
f 553/2/5 546/2/5 545/2/5
f 554/2/5 546/2/5 553/2/5
f 555/2/5 551/2/5 550/2/5
f 555/2/5 549/2/5 547/2/5
f 555/2/5 550/2/5 549/2/5
f 556/2/5 551/2/5 555/2/5
f 557/2/5 551/2/5 556/2/5
f 559/1/5 553/1/5 552/1/5
f 560/2/5 554/2/5 553/2/5
f 560/1/5 553/1/5 559/1/5
f 561/2/5 554/2/5 560/2/5
f 565/1/5 562/1/5 561/1/5
f 566/1/5 562/1/5 565/1/5
f 568/1/5 564/1/5 563/1/5
f 569/1/5 564/1/5 568/1/5
f 570/2/5 558/2/5 557/2/5
f 573/1/5 567/1/5 566/1/5
f 573/1/5 566/1/5 565/1/5
f 574/1/5 567/1/5 573/1/5
f 576/2/5 570/2/5 569/2/5
f 577/1/5 572/1/5 571/1/5
f 578/1/5 572/1/5 577/1/5
f 581/1/5 576/1/5 575/1/5
f 582/2/5 570/2/5 576/2/5
f 582/1/5 576/1/5 581/1/5
f 583/2/5 558/2/5 570/2/5
f 583/2/5 570/2/5 582/2/5
f 584/2/5 558/2/5 583/2/5
f 586/1/5 580/1/5 579/1/5
f 587/1/5 580/1/5 586/1/5
f 591/1/5 586/1/5 585/1/5
f 592/1/5 586/1/5 591/1/5
f 593/1/5 588/1/5 587/1/5
f 594/1/5 588/1/5 593/1/5
f 596/2/5 590/2/5 589/2/5
f 597/2/5 590/2/5 596/2/5
f 598/1/5 595/1/5 594/1/5
f 599/1/5 595/1/5 598/1/5
f 602/2/5 601/2/5 600/2/5
f 603/2/5 601/2/5 602/2/5
f 604/1/5 603/1/5 602/1/5
f 605/2/5 601/2/5 603/2/5
f 605/1/5 603/1/5 604/1/5
f 606/2/5 601/2/5 605/2/5
f 610/1/5 608/1/5 607/1/5
f 611/1/5 608/1/5 610/1/5
f 612/1/5 610/1/5 609/1/5
f 613/1/5 610/1/5 612/1/5
f 616/1/5 615/1/5 614/1/5
f 617/1/5 615/1/5 616/1/5
f 618/1/5 617/1/5 616/1/5
f 619/1/5 617/1/5 618/1/5
f 622/1/5 621/1/5 620/1/5
f 623/1/5 621/1/5 622/1/5
f 628/2/5 625/2/5 624/2/5
f 629/2/5 625/2/5 628/2/5
f 631/1/5 627/1/5 626/1/5
f 632/1/5 627/1/5 631/1/5
f 633/1/5 631/1/5 630/1/5
f 634/1/5 631/1/5 633/1/5
f 636/1/5 635/1/5 634/1/5
f 637/1/5 635/1/5 636/1/5
f 640/2/5 639/2/5 638/2/5
f 641/2/5 639/2/5 640/2/5
f 645/1/5 643/1/5 642/1/5
f 646/1/5 643/1/5 645/1/5
f 647/1/5 645/1/5 644/1/5
f 648/1/5 645/1/5 647/1/5
f 651/1/5 650/1/5 649/1/5
f 652/1/5 650/1/5 651/1/5
f 654/1/5 653/1/5 652/1/5
f 655/1/5 653/1/5 654/1/5
f 658/2/5 657/2/5 656/2/5
f 659/2/5 657/2/5 658/2/5
f 662/2/5 661/2/5 660/2/5
f 663/2/5 661/2/5 662/2/5
f 664/2/6 665/2/6 668/2/6
f 668/2/6 665/2/6 669/2/6
f 666/2/6 667/2/6 672/2/6
f 669/2/6 670/2/6 673/2/6
f 673/2/6 670/2/6 674/2/6
f 671/1/6 672/1/6 676/1/6
f 672/2/6 667/2/6 677/2/6
f 676/1/6 672/1/6 677/1/6
f 677/2/6 667/2/6 678/2/6
f 674/2/6 675/2/6 679/2/6
f 673/2/6 674/2/6 679/2/6
f 680/1/6 681/1/6 683/1/6
f 681/1/6 682/1/6 683/1/6
f 683/1/6 682/1/6 684/1/6
f 684/1/6 682/1/6 685/1/6
f 679/2/6 675/2/6 686/2/6
f 686/2/6 675/2/6 687/2/6
f 688/1/6 689/1/6 692/1/6
f 692/1/6 689/1/6 693/1/6
f 690/1/6 691/1/6 694/1/6
f 694/1/6 691/1/6 695/1/6
f 679/2/6 686/2/6 696/2/6
f 696/2/6 686/2/6 697/2/6
f 694/1/6 695/1/6 698/1/6
f 698/1/6 695/1/6 699/1/6
f 700/2/6 701/2/6 702/2/6
f 702/2/6 701/2/6 703/2/6
f 703/2/6 704/2/6 705/2/6
f 705/2/6 704/2/6 706/2/6
f 707/1/6 708/1/6 709/1/6
f 709/1/6 708/1/6 710/1/6
f 710/1/6 711/1/6 714/1/6
f 714/1/6 711/1/6 715/1/6
f 712/2/6 713/2/6 716/2/6
f 716/2/6 713/2/6 717/2/6
f 710/1/6 714/1/6 718/1/6
f 718/1/6 714/1/6 719/1/6
f 720/2/6 721/2/6 722/2/6
f 724/1/6 725/1/6 727/1/6
f 725/1/6 726/1/6 727/1/6
f 727/1/6 726/1/6 728/1/6
f 728/1/6 726/1/6 729/1/6
f 720/2/6 722/2/6 730/2/6
f 722/2/6 723/2/6 730/2/6
f 730/2/6 723/2/6 731/2/6
f 720/2/6 730/2/6 732/2/6
f 732/2/6 730/2/6 733/2/6
f 734/2/6 735/2/6 736/2/6
f 736/2/6 735/2/6 737/2/6
f 737/2/6 738/2/6 739/2/6
f 739/2/6 738/2/6 740/2/6
f 741/1/6 742/1/6 743/1/6
f 743/1/6 742/1/6 744/1/6
f 745/1/6 746/1/6 747/1/6
f 747/1/6 746/1/6 748/1/6
f 749/2/6 750/2/6 751/2/6
f 749/2/6 751/2/6 753/2/6
f 751/2/6 752/2/6 753/2/6
f 753/2/6 752/2/6 754/2/6
f 754/2/6 752/2/6 756/2/6
f 755/1/6 756/1/6 757/1/6
f 756/2/6 752/2/6 758/2/6
f 757/1/6 756/1/6 758/1/6
f 758/2/6 752/2/6 759/2/6
f 759/2/6 752/2/6 760/2/6
f 761/2/6 762/2/6 763/2/6
f 763/2/6 762/2/6 764/2/6
