# MagicaVoxel @ Ephtracy

# group
o 

# material
mtllib HealthKit1.mtl
usemtl palette

# normals
vn -1 0 0
vn 1 0 0
vn 0 0 1
vn 0 0 -1
vn 0 -1 0
vn 0 1 0

# texcoords
vt 0.904297 0.5
vt 0.958984 0.5
vt 0.994141 0.5

# verts
v -0.8 0.6 2.1
v -0.8 0.6 -2
v -0.8 0.7 2
v -0.8 0.7 -1.9
v -0.8 0.8 0.4
v -0.8 0.8 -0.3
v -0.8 1.5 1.1
v -0.8 1.5 0.4
v -0.8 1.5 -0.3
v -0.8 1.5 -1
v -0.8 2.2 1.1
v -0.8 2.2 0.4
v -0.8 2.2 -0.3
v -0.8 2.2 -1
v -0.8 2.9 0.4
v -0.8 2.9 -0.3
v -0.8 3 2
v -0.8 3 -1.9
v -0.8 3.1 2.1
v -0.8 3.1 -2
v 0.7 0.6 2.1
v 0.7 0.6 -2
v 0.7 0.7 2
v 0.7 0.7 -1.9
v 0.7 0.8 0.4
v 0.7 0.8 -0.3
v 0.7 1.5 1.2
v 0.7 1.5 0.4
v 0.7 1.5 -0.3
v 0.7 1.5 -1.1
v 0.7 2.2 1.2
v 0.7 2.2 0.4
v 0.7 2.2 -0.3
v 0.7 2.2 -1.1
v 0.7 2.9 0.4
v 0.7 2.9 -0.3
v 0.7 3 2
v 0.7 3 -1.9
v 0.7 3.1 2.1
v 0.7 3.1 -2
v -0.8 0.6 2.1
v -0.8 3.1 2.1
v -0.7 0.7 2.1
v -0.7 3 2.1
v 0.6 0.7 2.1
v 0.6 3 2.1
v 0.7 0.6 2.1
v 0.7 3.1 2.1
v -0.8 0.6 -2
v -0.8 3.1 -2
v -0.7 0.7 -2
v -0.7 3 -2
v 0.6 0.7 -2
v 0.6 3 -2
v 0.7 0.6 -2
v 0.7 3.1 -2
v -0.8 0.6 2.1
v 0.7 0.6 2.1
v -0.7 0.6 2
v 0.6 0.6 2
v -0.7 0.6 -1.9
v 0.6 0.6 -1.9
v -0.8 0.6 -2
v 0.7 0.6 -2
v -0.8 3.1 2.1
v 0.7 3.1 2.1
v -0.7 3.1 2
v 0.6 3.1 2
v -0.7 3.1 -1.9
v 0.6 3.1 -1.9
v -0.8 3.1 -2
v 0.7 3.1 -2

# faces
f 3/3/1 2/3/1 1/3/1
f 4/3/1 2/3/1 3/3/1
f 5/2/1 4/2/1 3/2/1
f 6/2/1 4/2/1 5/2/1
f 7/2/1 5/2/1 3/2/1
f 8/1/1 6/1/1 5/1/1
f 8/2/1 5/2/1 7/2/1
f 9/2/1 4/2/1 6/2/1
f 9/1/1 6/1/1 8/1/1
f 10/2/1 4/2/1 9/2/1
f 11/1/1 8/1/1 7/1/1
f 11/2/1 7/2/1 3/2/1
f 11/1/1 10/1/1 9/1/1
f 11/1/1 9/1/1 8/1/1
f 12/1/1 10/1/1 11/1/1
f 13/1/1 10/1/1 12/1/1
f 14/2/1 4/2/1 10/2/1
f 14/1/1 10/1/1 13/1/1
f 15/1/1 13/1/1 12/1/1
f 15/2/1 12/2/1 11/2/1
f 16/2/1 14/2/1 13/2/1
f 16/1/1 13/1/1 15/1/1
f 17/3/1 3/3/1 1/3/1
f 17/2/1 11/2/1 3/2/1
f 17/2/1 16/2/1 15/2/1
f 17/2/1 15/2/1 11/2/1
f 18/2/1 14/2/1 16/2/1
f 18/2/1 16/2/1 17/2/1
f 18/3/1 2/3/1 4/3/1
f 18/2/1 4/2/1 14/2/1
f 19/3/1 17/3/1 1/3/1
f 19/3/1 18/3/1 17/3/1
f 20/3/1 2/3/1 18/3/1
f 20/3/1 18/3/1 19/3/1
f 21/3/2 22/3/2 23/3/2
f 23/3/2 22/3/2 24/3/2
f 23/2/2 24/2/2 25/2/2
f 25/2/2 24/2/2 26/2/2
f 23/2/2 25/2/2 27/2/2
f 25/1/2 26/1/2 28/1/2
f 27/2/2 25/2/2 28/2/2
f 26/2/2 24/2/2 29/2/2
f 28/1/2 26/1/2 29/1/2
f 29/2/2 24/2/2 30/2/2
f 27/1/2 28/1/2 31/1/2
f 23/2/2 27/2/2 31/2/2
f 29/1/2 30/1/2 31/1/2
f 28/1/2 29/1/2 31/1/2
f 31/1/2 30/1/2 32/1/2
f 32/1/2 30/1/2 33/1/2
f 30/2/2 24/2/2 34/2/2
f 33/1/2 30/1/2 34/1/2
f 32/1/2 33/1/2 35/1/2
f 31/2/2 32/2/2 35/2/2
f 33/2/2 34/2/2 36/2/2
f 35/1/2 33/1/2 36/1/2
f 21/3/2 23/3/2 37/3/2
f 23/2/2 31/2/2 37/2/2
f 35/2/2 36/2/2 37/2/2
f 31/2/2 35/2/2 37/2/2
f 36/2/2 34/2/2 38/2/2
f 37/2/2 36/2/2 38/2/2
f 24/3/2 22/3/2 38/3/2
f 34/2/2 24/2/2 38/2/2
f 21/3/2 37/3/2 39/3/2
f 37/3/2 38/3/2 39/3/2
f 38/3/2 22/3/2 40/3/2
f 39/3/2 38/3/2 40/3/2
f 43/3/3 42/3/3 41/3/3
f 44/3/3 42/3/3 43/3/3
f 45/3/3 43/3/3 41/3/3
f 45/2/3 44/2/3 43/2/3
f 46/3/3 42/3/3 44/3/3
f 46/2/3 44/2/3 45/2/3
f 47/3/3 45/3/3 41/3/3
f 47/3/3 46/3/3 45/3/3
f 48/3/3 42/3/3 46/3/3
f 48/3/3 46/3/3 47/3/3
f 49/3/4 50/3/4 51/3/4
f 51/3/4 50/3/4 52/3/4
f 49/3/4 51/3/4 53/3/4
f 51/2/4 52/2/4 53/2/4
f 52/3/4 50/3/4 54/3/4
f 53/2/4 52/2/4 54/2/4
f 49/3/4 53/3/4 55/3/4
f 53/3/4 54/3/4 55/3/4
f 54/3/4 50/3/4 56/3/4
f 55/3/4 54/3/4 56/3/4
f 59/3/5 58/3/5 57/3/5
f 60/3/5 58/3/5 59/3/5
f 61/3/5 59/3/5 57/3/5
f 61/2/5 60/2/5 59/2/5
f 62/3/5 58/3/5 60/3/5
f 62/2/5 60/2/5 61/2/5
f 63/3/5 61/3/5 57/3/5
f 63/3/5 62/3/5 61/3/5
f 64/3/5 58/3/5 62/3/5
f 64/3/5 62/3/5 63/3/5
f 65/3/6 66/3/6 67/3/6
f 67/3/6 66/3/6 68/3/6
f 65/3/6 67/3/6 69/3/6
f 67/2/6 68/2/6 69/2/6
f 68/3/6 66/3/6 70/3/6
f 69/2/6 68/2/6 70/2/6
f 65/3/6 69/3/6 71/3/6
f 69/3/6 70/3/6 71/3/6
f 70/3/6 66/3/6 72/3/6
f 71/3/6 70/3/6 72/3/6
