# MagicaVoxel @ Ephtracy

# group
o 

# material
mtllib SpaceInvader4.3.mtl
usemtl palette

# normals
vn -1 0 0
vn 1 0 0
vn 0 0 1
vn 0 0 -1
vn 0 -1 0
vn 0 1 0

# texcoords
vt 0.0175781 0.5
vt 0.0410156 0.5
vt 0.716797 0.5
vt 0.994141 0.5

# verts
v -2.23517e-008 0.4 0.6
v -2.23517e-008 0.4 0
v -2.23517e-008 0.5 0.6
v -2.23517e-008 0.5 0.5
v -2.23517e-008 0.5 0.4
v -2.23517e-008 0.5 0.2
v -2.23517e-008 0.5 0.1
v -2.23517e-008 0.5 0
v -2.23517e-008 0.5 -0.4
v -2.23517e-008 0.6 0.6
v -2.23517e-008 0.6 0.5
v -2.23517e-008 0.6 0.4
v -2.23517e-008 0.6 0
v -2.23517e-008 0.6 -0.1
v -2.23517e-008 0.6 -0.2
v -2.23517e-008 0.6 -0.4
v -2.23517e-008 0.6 -0.5
v -2.23517e-008 0.7 0.6
v -2.23517e-008 0.7 0.4
v -2.23517e-008 0.7 0.3
v -2.23517e-008 0.7 0.2
v -2.23517e-008 0.7 0.1
v -2.23517e-008 0.7 0
v -2.23517e-008 0.7 -0.4
v -2.23517e-008 0.7 -0.5
v -2.23517e-008 0.7 -0.6
v -2.23517e-008 0.8 0.3
v -2.23517e-008 0.8 0.2
v -2.23517e-008 0.8 0.1
v -2.23517e-008 0.8 0
v -2.23517e-008 0.8 -0.1
v -2.23517e-008 0.8 -0.2
v -2.23517e-008 0.8 -0.4
v -2.23517e-008 0.8 -0.5
v -2.23517e-008 0.8 -0.6
v -2.23517e-008 0.8 -0.7
v -2.23517e-008 0.9 0.3
v -2.23517e-008 0.9 0.1
v -2.23517e-008 0.9 -0.1
v -2.23517e-008 0.9 -0.2
v -2.23517e-008 0.9 -0.3
v -2.23517e-008 1 0.3
v -2.23517e-008 1 0.1
v -2.23517e-008 1 0
v -2.23517e-008 1 -0.1
v -2.23517e-008 1 -0.3
v -2.23517e-008 1 -0.4
v -2.23517e-008 1 -0.6
v -2.23517e-008 1.1 0.2
v -2.23517e-008 1.1 0.1
v -2.23517e-008 1.1 0
v -2.23517e-008 1.1 -0.1
v -2.23517e-008 1.1 -0.2
v -2.23517e-008 1.1 -0.3
v -2.23517e-008 1.1 -0.4
v -2.23517e-008 1.1 -0.5
v -2.23517e-008 1.1 -0.6
v -2.23517e-008 1.1 -0.7
v -2.23517e-008 1.2 0.3
v -2.23517e-008 1.2 0.2
v -2.23517e-008 1.2 0.1
v -2.23517e-008 1.2 0
v -2.23517e-008 1.2 -0.1
v -2.23517e-008 1.2 -0.2
v -2.23517e-008 1.2 -0.3
v -2.23517e-008 1.2 -0.4
v -2.23517e-008 1.2 -0.5
v -2.23517e-008 1.2 -0.6
v -2.23517e-008 1.3 0.4
v -2.23517e-008 1.3 0.3
v -2.23517e-008 1.3 0.2
v -2.23517e-008 1.3 0
v -2.23517e-008 1.3 -0.2
v -2.23517e-008 1.3 -0.3
v -2.23517e-008 1.3 -0.4
v -2.23517e-008 1.3 -0.5
v -2.23517e-008 1.4 0.3
v -2.23517e-008 1.4 0.2
v -2.23517e-008 1.4 0.1
v -2.23517e-008 1.4 -0.1
v -2.23517e-008 1.4 -0.2
v -2.23517e-008 1.4 -0.3
v -2.23517e-008 1.5 0.2
v -2.23517e-008 1.5 0.1
v -2.23517e-008 1.5 0
v -2.23517e-008 1.5 -0.1
v -2.23517e-008 1.5 -0.2
v -2.23517e-008 1.5 -0.3
v -2.23517e-008 1.5 -0.4
v -2.23517e-008 1.6 0.1
v -2.23517e-008 1.6 -0.3
v 0.1 0.4 0.7
v 0.1 0.4 0.6
v 0.1 0.5 0.7
v 0.1 0.5 0.6
v 0.1 0.5 0.5
v 0.1 0.6 0.6
v 0.1 0.6 0.5
v 0.4 0 0.4
v 0.4 0 0.1
v 0.4 0.2 0.4
v 0.4 0.2 0.1
v 0.4 0.4 0
v 0.4 0.4 -0.2
v 0.4 0.6 0
v 0.4 0.6 -0.2
v 0.4 0.8 0.4
v 0.4 0.8 0.2
v 0.4 1 0.4
v 0.4 1 0.2
v 0.6 0.2 0.2
v 0.6 0.2 0.1
v 0.6 0.2 -0.1
v 0.6 0.4 0.2
v 0.6 0.4 0
v 0.6 0.4 -0.1
v 0.1 0.5 -0.2
v 0.1 0.5 -0.4
v 0.1 0.6 -0.2
v 0.1 0.6 -0.4
v 0.1 0.6 -0.5
v 0.1 0.7 -0.4
v 0.1 0.7 -0.5
v 0.1 0.7 -0.6
v 0.1 0.8 -0.5
v 0.1 0.8 -0.6
v 0.1 0.8 -0.7
v 0.1 1.1 -0.6
v 0.1 1.1 -0.7
v 0.1 1.4 0.2
v 0.1 1.4 0.1
v 0.1 1.4 -0.3
v 0.1 1.4 -0.4
v 0.1 1.5 0.2
v 0.1 1.5 0.1
v 0.1 1.5 0
v 0.1 1.5 -0.2
v 0.1 1.5 -0.3
v 0.1 1.5 -0.4
v 0.1 1.6 0.1
v 0.1 1.6 0
v 0.1 1.6 -0.2
v 0.1 1.6 -0.3
v 0.2 0.4 0.7
v 0.2 0.4 0
v 0.2 0.5 0.7
v 0.2 0.5 0.6
v 0.2 0.5 0
v 0.2 0.5 -0.2
v 0.2 0.6 0.4
v 0.2 0.6 -0.2
v 0.2 0.7 0.6
v 0.2 0.7 0.4
v 0.2 0.8 0.4
v 0.2 0.8 0.2
v 0.2 1 0.4
v 0.2 1 0.2
v 0.2 1 -0.5
v 0.2 1 -0.6
v 0.2 1.2 -0.5
v 0.2 1.2 -0.6
v 0.2 1.4 0.1
v 0.2 1.4 -0.3
v 0.2 1.5 0.1
v 0.2 1.5 0
v 0.2 1.5 -0.2
v 0.2 1.5 -0.3
v 0.2 1.6 0
v 0.2 1.6 -0.2
v 0.3 1.1 0.4
v 0.3 1.1 0.3
v 0.3 1.2 -0.4
v 0.3 1.2 -0.5
v 0.3 1.3 0.4
v 0.3 1.3 0.3
v 0.3 1.3 0.2
v 0.3 1.3 -0.4
v 0.3 1.3 -0.5
v 0.3 1.4 0.3
v 0.3 1.4 0.2
v 0.4 0.8 -0.5
v 0.4 0.8 -0.6
v 0.4 1 -0.5
v 0.4 1 -0.6
v 0.4 1.1 -0.4
v 0.4 1.1 -0.5
v 0.4 1.2 0.3
v 0.4 1.2 -0.4
v 0.4 1.2 -0.5
v 0.4 1.3 0.3
v 0.4 1.3 0.2
v 0.4 1.4 0.2
v 0.4 1.4 -0.4
v 0.5 0.9 -0.4
v 0.5 0.9 -0.5
v 0.5 1 0.4
v 0.5 1 0.3
v 0.5 1.1 0.4
v 0.5 1.1 0.3
v 0.5 1.1 0.2
v 0.5 1.1 -0.3
v 0.5 1.1 -0.4
v 0.5 1.1 -0.5
v 0.5 1.2 0.3
v 0.5 1.2 0.2
v 0.5 1.2 -0.3
v 0.5 1.2 -0.4
v 0.6 0 0.4
v 0.6 0 0.1
v 0.6 0.2 0.4
v 0.6 0.2 0.2
v 0.6 0.2 0.1
v 0.6 0.4 0
v 0.6 0.4 -0.1
v 0.6 0.4 -0.2
v 0.6 0.6 0.4
v 0.6 0.6 0.3
v 0.6 0.6 0
v 0.6 0.6 -0.2
v 0.6 0.7 -0.4
v 0.6 0.7 -0.5
v 0.6 0.9 -0.4
v 0.6 0.9 -0.5
v 0.6 1 0.4
v 0.6 1 0.3
v 0.6 1 -0.4
v 0.6 1.1 0.3
v 0.6 1.1 0.2
v 0.6 1.1 -0.3
v 0.6 1.1 -0.4
v 0.6 1.2 0.2
v 0.6 1.2 -0.3
v 0.7 0.6 0.3
v 0.7 0.6 0.2
v 0.7 0.6 -0.2
v 0.7 0.6 -0.4
v 0.7 0.7 0.3
v 0.7 0.7 0.2
v 0.7 0.7 -0.2
v 0.7 0.7 -0.3
v 0.7 0.9 0.3
v 0.7 0.9 0.2
v 0.7 0.9 -0.2
v 0.7 0.9 -0.3
v 0.7 1 0.3
v 0.7 1 0.2
v 0.7 1 -0.2
v 0.7 1 -0.4
v 0.8 0.2 0.2
v 0.8 0.2 -0.1
v 0.8 0.4 0.2
v 0.8 0.4 -0.1
v 0.8 0.6 0.2
v 0.8 0.6 -0.2
v 0.8 0.7 0.3
v 0.8 0.7 0.2
v 0.8 0.7 -0.2
v 0.8 0.7 -0.3
v 0.8 0.9 0.3
v 0.8 0.9 0.2
v 0.8 0.9 -0.2
v 0.8 0.9 -0.3
v 0.8 1 0.2
v 0.8 1 -0.2
v 0.1 0.4 0.7
v 0.1 0.5 0.7
v 0.2 0.4 0.7
v 0.2 0.5 0.7
v -2.23517e-008 0.4 0.6
v -2.23517e-008 0.5 0.6
v -2.23517e-008 0.6 0.6
v -2.23517e-008 0.7 0.6
v 0.1 0.4 0.6
v 0.1 0.5 0.6
v 0.1 0.6 0.6
v 0.2 0.5 0.6
v 0.2 0.7 0.6
v -2.23517e-008 0.5 0.5
v -2.23517e-008 0.6 0.5
v 0.1 0.5 0.5
v 0.1 0.6 0.5
v -2.23517e-008 0.7 0.4
v -2.23517e-008 1.3 0.4
v 0.2 0.6 0.4
v 0.2 0.7 0.4
v 0.2 0.8 0.4
v 0.2 1 0.4
v 0.3 1.1 0.4
v 0.3 1.3 0.4
v 0.4 0 0.4
v 0.4 0.2 0.4
v 0.4 0.8 0.4
v 0.4 1 0.4
v 0.5 1 0.4
v 0.5 1.1 0.4
v 0.6 0 0.4
v 0.6 0.2 0.4
v 0.6 0.6 0.4
v 0.6 1 0.4
v -2.23517e-008 1.3 0.3
v -2.23517e-008 1.4 0.3
v 0.3 1.1 0.3
v 0.3 1.3 0.3
v 0.3 1.4 0.3
v 0.4 1.2 0.3
v 0.4 1.3 0.3
v 0.5 1 0.3
v 0.5 1.1 0.3
v 0.5 1.2 0.3
v 0.6 0.6 0.3
v 0.6 1 0.3
v 0.6 1.1 0.3
v 0.7 0.6 0.3
v 0.7 0.7 0.3
v 0.7 0.9 0.3
v 0.7 1 0.3
v 0.8 0.7 0.3
v 0.8 0.9 0.3
v -2.23517e-008 1.4 0.2
v -2.23517e-008 1.5 0.2
v 0.1 1.4 0.2
v 0.1 1.5 0.2
v 0.2 0.8 0.2
v 0.2 1 0.2
v 0.3 1.3 0.2
v 0.3 1.4 0.2
v 0.4 0.8 0.2
v 0.4 1 0.2
v 0.4 1.3 0.2
v 0.4 1.4 0.2
v 0.5 1.1 0.2
v 0.5 1.2 0.2
v 0.6 0.2 0.2
v 0.6 0.4 0.2
v 0.6 1.1 0.2
v 0.6 1.2 0.2
v 0.7 0.6 0.2
v 0.7 0.7 0.2
v 0.7 0.9 0.2
v 0.7 1 0.2
v 0.8 0.2 0.2
v 0.8 0.4 0.2
v 0.8 0.6 0.2
v 0.8 0.7 0.2
v 0.8 0.9 0.2
v 0.8 1 0.2
v -2.23517e-008 1.5 0.1
v -2.23517e-008 1.6 0.1
v 0.1 1.4 0.1
v 0.1 1.5 0.1
v 0.1 1.6 0.1
v 0.2 1.4 0.1
v 0.2 1.5 0.1
v 0.1 1.5 0
v 0.1 1.6 0
v 0.2 1.5 0
v 0.2 1.6 0
v 0.4 0.4 0
v 0.4 0.6 0
v 0.6 0.4 0
v 0.6 0.6 0
v 0.4 0 0.1
v 0.4 0.2 0.1
v 0.6 0 0.1
v 0.6 0.2 0.1
v -2.23517e-008 0.4 0
v -2.23517e-008 0.5 0
v 0.2 0.4 0
v 0.2 0.5 0
v 0.6 0.2 -0.1
v 0.6 0.4 -0.1
v 0.8 0.2 -0.1
v 0.8 0.4 -0.1
v 0.1 0.5 -0.2
v 0.1 0.6 -0.2
v 0.1 1.5 -0.2
v 0.1 1.6 -0.2
v 0.2 0.5 -0.2
v 0.2 0.6 -0.2
v 0.2 1.5 -0.2
v 0.2 1.6 -0.2
v 0.4 0.4 -0.2
v 0.4 0.6 -0.2
v 0.6 0.4 -0.2
v 0.6 0.6 -0.2
v 0.7 0.6 -0.2
v 0.7 0.7 -0.2
v 0.7 0.9 -0.2
v 0.7 1 -0.2
v 0.8 0.6 -0.2
v 0.8 0.7 -0.2
v 0.8 0.9 -0.2
v 0.8 1 -0.2
v -2.23517e-008 1.5 -0.3
v -2.23517e-008 1.6 -0.3
v 0.1 1.4 -0.3
v 0.1 1.5 -0.3
v 0.1 1.6 -0.3
v 0.2 1.4 -0.3
v 0.2 1.5 -0.3
v 0.5 1.1 -0.3
v 0.5 1.2 -0.3
v 0.6 1.1 -0.3
v 0.6 1.2 -0.3
v 0.7 0.7 -0.3
v 0.7 0.9 -0.3
v 0.8 0.7 -0.3
v 0.8 0.9 -0.3
v -2.23517e-008 0.5 -0.4
v -2.23517e-008 0.6 -0.4
v -2.23517e-008 1.3 -0.4
v -2.23517e-008 1.5 -0.4
v 0.1 0.5 -0.4
v 0.1 0.6 -0.4
v 0.1 0.7 -0.4
v 0.1 1.4 -0.4
v 0.1 1.5 -0.4
v 0.3 1.2 -0.4
v 0.3 1.3 -0.4
v 0.4 1.1 -0.4
v 0.4 1.2 -0.4
v 0.4 1.4 -0.4
v 0.5 0.9 -0.4
v 0.5 1.1 -0.4
v 0.5 1.2 -0.4
v 0.6 0.7 -0.4
v 0.6 0.9 -0.4
v 0.6 1 -0.4
v 0.6 1.1 -0.4
v 0.7 0.6 -0.4
v 0.7 1 -0.4
v -2.23517e-008 0.6 -0.5
v -2.23517e-008 0.7 -0.5
v -2.23517e-008 1.2 -0.5
v -2.23517e-008 1.3 -0.5
v 0.1 0.6 -0.5
v 0.1 0.7 -0.5
v 0.1 0.8 -0.5
v 0.2 1 -0.5
v 0.2 1.2 -0.5
v 0.3 1.2 -0.5
v 0.3 1.3 -0.5
v 0.4 0.8 -0.5
v 0.4 1 -0.5
v 0.4 1.1 -0.5
v 0.4 1.2 -0.5
v 0.5 0.9 -0.5
v 0.5 1.1 -0.5
v 0.6 0.7 -0.5
v 0.6 0.9 -0.5
v -2.23517e-008 0.7 -0.6
v -2.23517e-008 0.8 -0.6
v -2.23517e-008 1.1 -0.6
v -2.23517e-008 1.2 -0.6
v 0.1 0.7 -0.6
v 0.1 0.8 -0.6
v 0.1 1.1 -0.6
v 0.2 1 -0.6
v 0.2 1.2 -0.6
v 0.4 0.8 -0.6
v 0.4 1 -0.6
v -2.23517e-008 0.8 -0.7
v -2.23517e-008 1.1 -0.7
v 0.1 0.8 -0.7
v 0.1 1.1 -0.7
v 0.4 0 0.4
v 0.6 0 0.4
v 0.4 0 0.1
v 0.6 0 0.1
v 0.6 0.2 0.2
v 0.8 0.2 0.2
v 0.6 0.2 0.1
v 0.6 0.2 -0.1
v 0.8 0.2 -0.1
v 0.1 0.4 0.7
v 0.2 0.4 0.7
v -2.23517e-008 0.4 0.6
v 0.1 0.4 0.6
v -2.23517e-008 0.4 0
v 0.2 0.4 0
v 0.4 0.4 0
v 0.6 0.4 0
v 0.6 0.4 -0.1
v 0.4 0.4 -0.2
v 0.6 0.4 -0.2
v -2.23517e-008 0.5 0
v 0.2 0.5 0
v 0.1 0.5 -0.2
v 0.2 0.5 -0.2
v -2.23517e-008 0.5 -0.4
v 0.1 0.5 -0.4
v -2.23517e-008 0.6 0.6
v 0.1 0.6 0.6
v -2.23517e-008 0.6 0.5
v 0.1 0.6 0.5
v 0.2 0.6 0.4
v 0.6 0.6 0.4
v 0.6 0.6 0.3
v 0.7 0.6 0.3
v 0.7 0.6 0.2
v 0.8 0.6 0.2
v 0.4 0.6 0
v 0.6 0.6 0
v 0.1 0.6 -0.2
v 0.2 0.6 -0.2
v 0.4 0.6 -0.2
v 0.6 0.6 -0.2
v 0.7 0.6 -0.2
v 0.8 0.6 -0.2
v -2.23517e-008 0.6 -0.4
v 0.1 0.6 -0.4
v 0.7 0.6 -0.4
v -2.23517e-008 0.6 -0.5
v 0.1 0.6 -0.5
v 0.7 0.7 0.3
v 0.8 0.7 0.3
v 0.7 0.7 0.2
v 0.8 0.7 0.2
v 0.7 0.7 -0.2
v 0.8 0.7 -0.2
v 0.7 0.7 -0.3
v 0.8 0.7 -0.3
v 0.1 0.7 -0.4
v 0.6 0.7 -0.4
v -2.23517e-008 0.7 -0.5
v 0.1 0.7 -0.5
v 0.6 0.7 -0.5
v -2.23517e-008 0.7 -0.6
v 0.1 0.7 -0.6
v 0.1 0.8 -0.5
v 0.4 0.8 -0.5
v -2.23517e-008 0.8 -0.6
v 0.1 0.8 -0.6
v 0.4 0.8 -0.6
v -2.23517e-008 0.8 -0.7
v 0.1 0.8 -0.7
v 0.2 1 0.4
v 0.4 1 0.4
v 0.2 1 0.2
v 0.4 1 0.2
v 0.4 0.2 0.4
v 0.6 0.2 0.4
v 0.6 0.2 0.2
v 0.4 0.2 0.1
v 0.6 0.2 0.1
v 0.6 0.4 0.2
v 0.8 0.4 0.2
v 0.6 0.4 0
v 0.6 0.4 -0.1
v 0.8 0.4 -0.1
v 0.1 0.5 0.7
v 0.2 0.5 0.7
v -2.23517e-008 0.5 0.6
v 0.1 0.5 0.6
v 0.2 0.5 0.6
v -2.23517e-008 0.5 0.5
v 0.1 0.5 0.5
v -2.23517e-008 0.7 0.6
v 0.2 0.7 0.6
v -2.23517e-008 0.7 0.4
v 0.2 0.7 0.4
v 0.2 0.8 0.4
v 0.4 0.8 0.4
v 0.2 0.8 0.2
v 0.4 0.8 0.2
v 0.7 0.9 0.3
v 0.8 0.9 0.3
v 0.7 0.9 0.2
v 0.8 0.9 0.2
v 0.7 0.9 -0.2
v 0.8 0.9 -0.2
v 0.7 0.9 -0.3
v 0.8 0.9 -0.3
v 0.5 0.9 -0.4
v 0.6 0.9 -0.4
v 0.5 0.9 -0.5
v 0.6 0.9 -0.5
v 0.5 1 0.4
v 0.6 1 0.4
v 0.5 1 0.3
v 0.6 1 0.3
v 0.7 1 0.3
v 0.7 1 0.2
v 0.8 1 0.2
v 0.7 1 -0.2
v 0.8 1 -0.2
v 0.6 1 -0.4
v 0.7 1 -0.4
v 0.2 1 -0.5
v 0.4 1 -0.5
v 0.2 1 -0.6
v 0.4 1 -0.6
v 0.3 1.1 0.4
v 0.5 1.1 0.4
v 0.3 1.1 0.3
v 0.5 1.1 0.3
v 0.6 1.1 0.3
v 0.5 1.1 0.2
v 0.6 1.1 0.2
v 0.5 1.1 -0.3
v 0.6 1.1 -0.3
v 0.4 1.1 -0.4
v 0.5 1.1 -0.4
v 0.6 1.1 -0.4
v 0.4 1.1 -0.5
v 0.5 1.1 -0.5
v -2.23517e-008 1.1 -0.6
v 0.1 1.1 -0.6
v -2.23517e-008 1.1 -0.7
v 0.1 1.1 -0.7
v 0.4 1.2 0.3
v 0.5 1.2 0.3
v 0.5 1.2 0.2
v 0.6 1.2 0.2
v 0.5 1.2 -0.3
v 0.6 1.2 -0.3
v 0.3 1.2 -0.4
v 0.4 1.2 -0.4
v 0.5 1.2 -0.4
v -2.23517e-008 1.2 -0.5
v 0.2 1.2 -0.5
v 0.3 1.2 -0.5
v 0.4 1.2 -0.5
v -2.23517e-008 1.2 -0.6
v 0.2 1.2 -0.6
v -2.23517e-008 1.3 0.4
v 0.3 1.3 0.4
v -2.23517e-008 1.3 0.3
v 0.3 1.3 0.3
v 0.4 1.3 0.3
v 0.3 1.3 0.2
v 0.4 1.3 0.2
v -2.23517e-008 1.3 -0.4
v 0.3 1.3 -0.4
v -2.23517e-008 1.3 -0.5
v 0.3 1.3 -0.5
v -2.23517e-008 1.4 0.3
v 0.3 1.4 0.3
v -2.23517e-008 1.4 0.2
v 0.1 1.4 0.2
v 0.3 1.4 0.2
v 0.4 1.4 0.2
v 0.1 1.4 0.1
v 0.2 1.4 0.1
v 0.1 1.4 -0.3
v 0.2 1.4 -0.3
v 0.1 1.4 -0.4
v 0.4 1.4 -0.4
v -2.23517e-008 1.5 0.2
v 0.1 1.5 0.2
v -2.23517e-008 1.5 0.1
v 0.1 1.5 0.1
v 0.2 1.5 0.1
v 0.1 1.5 0
v 0.2 1.5 0
v 0.1 1.5 -0.2
v 0.2 1.5 -0.2
v -2.23517e-008 1.5 -0.3
v 0.1 1.5 -0.3
v 0.2 1.5 -0.3
v -2.23517e-008 1.5 -0.4
v 0.1 1.5 -0.4
v -2.23517e-008 1.6 0.1
v 0.1 1.6 0.1
v 0.1 1.6 0
v 0.2 1.6 0
v 0.1 1.6 -0.2
v 0.2 1.6 -0.2
v -2.23517e-008 1.6 -0.3
v 0.1 1.6 -0.3

# faces
f 3/3/1 2/3/1 1/3/1
f 4/3/1 2/3/1 3/3/1
f 5/3/1 2/3/1 4/3/1
f 6/3/1 2/3/1 5/3/1
f 7/3/1 2/3/1 6/3/1
f 8/3/1 2/3/1 7/3/1
f 11/4/1 5/4/1 4/4/1
f 12/1/1 6/1/1 5/1/1
f 12/4/1 5/4/1 11/4/1
f 13/3/1 9/3/1 8/3/1
f 13/1/1 8/1/1 7/1/1
f 14/3/1 9/3/1 13/3/1
f 15/3/1 9/3/1 14/3/1
f 16/3/1 9/3/1 15/3/1
f 18/3/1 12/3/1 11/3/1
f 18/3/1 11/3/1 10/3/1
f 19/1/1 6/1/1 12/1/1
f 19/3/1 12/3/1 18/3/1
f 20/1/1 6/1/1 19/1/1
f 21/2/1 7/2/1 6/2/1
f 21/1/1 6/1/1 20/1/1
f 22/1/1 13/1/1 7/1/1
f 22/2/1 7/2/1 21/2/1
f 22/1/1 14/1/1 13/1/1
f 23/1/1 14/1/1 22/1/1
f 24/3/1 17/3/1 16/3/1
f 24/1/1 16/1/1 15/1/1
f 25/3/1 17/3/1 24/3/1
f 27/3/1 20/3/1 19/3/1
f 27/2/1 21/2/1 20/2/1
f 28/1/1 22/1/1 21/1/1
f 28/2/1 21/2/1 27/2/1
f 29/2/1 23/2/1 22/2/1
f 29/1/1 22/1/1 28/1/1
f 30/1/1 14/1/1 23/1/1
f 30/2/1 23/2/1 29/2/1
f 31/2/1 15/2/1 14/2/1
f 31/1/1 14/1/1 30/1/1
f 32/1/1 24/1/1 15/1/1
f 32/2/1 15/2/1 31/2/1
f 33/2/1 25/2/1 24/2/1
f 33/1/1 24/1/1 32/1/1
f 34/3/1 26/3/1 25/3/1
f 34/2/1 25/2/1 33/2/1
f 35/3/1 26/3/1 34/3/1
f 37/1/1 29/1/1 28/1/1
f 37/1/1 28/1/1 27/1/1
f 37/1/1 30/1/1 29/1/1
f 37/3/1 27/3/1 19/3/1
f 38/1/1 30/1/1 37/1/1
f 39/1/1 32/1/1 31/1/1
f 39/2/1 31/2/1 30/2/1
f 40/2/1 33/2/1 32/2/1
f 40/1/1 32/1/1 39/1/1
f 41/2/1 33/2/1 40/2/1
f 42/2/1 38/2/1 37/2/1
f 42/3/1 37/3/1 19/3/1
f 43/1/1 30/1/1 38/1/1
f 43/2/1 38/2/1 42/2/1
f 44/2/1 39/2/1 30/2/1
f 44/1/1 30/1/1 43/1/1
f 44/2/1 40/2/1 39/2/1
f 45/2/1 40/2/1 44/2/1
f 46/2/1 33/2/1 41/2/1
f 46/1/1 41/1/1 40/1/1
f 47/1/1 35/1/1 34/1/1
f 47/2/1 33/2/1 46/2/1
f 47/1/1 34/1/1 33/1/1
f 48/3/1 36/3/1 35/3/1
f 48/1/1 35/1/1 47/1/1
f 49/1/1 43/1/1 42/1/1
f 50/2/1 44/2/1 43/2/1
f 50/1/1 43/1/1 49/1/1
f 51/1/1 45/1/1 44/1/1
f 51/2/1 44/2/1 50/2/1
f 52/2/1 40/2/1 45/2/1
f 52/1/1 45/1/1 51/1/1
f 53/1/1 47/1/1 46/1/1
f 53/2/1 40/2/1 52/2/1
f 53/1/1 46/1/1 40/1/1
f 54/1/1 47/1/1 53/1/1
f 55/2/1 48/2/1 47/2/1
f 55/1/1 47/1/1 54/1/1
f 56/2/1 48/2/1 55/2/1
f 57/3/1 36/3/1 48/3/1
f 57/2/1 48/2/1 56/2/1
f 58/3/1 36/3/1 57/3/1
f 59/3/1 42/3/1 19/3/1
f 59/1/1 49/1/1 42/1/1
f 60/2/1 50/2/1 49/2/1
f 60/1/1 49/1/1 59/1/1
f 61/1/1 51/1/1 50/1/1
f 61/2/1 50/2/1 60/2/1
f 62/2/1 52/2/1 51/2/1
f 62/1/1 51/1/1 61/1/1
f 63/1/1 53/1/1 52/1/1
f 63/2/1 52/2/1 62/2/1
f 64/2/1 54/2/1 53/2/1
f 64/1/1 53/1/1 63/1/1
f 65/1/1 56/1/1 55/1/1
f 65/2/1 54/2/1 64/2/1
f 65/1/1 55/1/1 54/1/1
f 66/1/1 56/1/1 65/1/1
f 67/3/1 57/3/1 56/3/1
f 67/1/1 56/1/1 66/1/1
f 68/3/1 57/3/1 67/3/1
f 69/3/1 59/3/1 19/3/1
f 70/2/1 61/2/1 60/2/1
f 70/3/1 59/3/1 69/3/1
f 70/2/1 60/2/1 59/2/1
f 70/2/1 62/2/1 61/2/1
f 71/2/1 62/2/1 70/2/1
f 72/1/1 63/1/1 62/1/1
f 72/2/1 62/2/1 71/2/1
f 72/1/1 64/1/1 63/1/1
f 72/1/1 65/1/1 64/1/1
f 73/1/1 65/1/1 72/1/1
f 74/2/1 66/2/1 65/2/1
f 74/1/1 65/1/1 73/1/1
f 75/3/1 67/3/1 66/3/1
f 75/2/1 66/2/1 74/2/1
f 76/3/1 67/3/1 75/3/1
f 77/3/1 71/3/1 70/3/1
f 78/1/1 72/1/1 71/1/1
f 78/3/1 71/3/1 77/3/1
f 79/1/1 72/1/1 78/1/1
f 80/2/1 73/2/1 72/2/1
f 81/1/1 74/1/1 73/1/1
f 81/2/1 73/2/1 80/2/1
f 82/3/1 75/3/1 74/3/1
f 82/1/1 74/1/1 81/1/1
f 83/3/1 79/3/1 78/3/1
f 84/1/1 72/1/1 79/1/1
f 84/3/1 79/3/1 83/3/1
f 85/2/1 80/2/1 72/2/1
f 85/1/1 72/1/1 84/1/1
f 86/1/1 81/1/1 80/1/1
f 86/2/1 80/2/1 85/2/1
f 87/2/1 82/2/1 81/2/1
f 87/1/1 81/1/1 86/1/1
f 88/3/1 75/3/1 82/3/1
f 88/2/1 82/2/1 87/2/1
f 89/3/1 75/3/1 88/3/1
f 90/3/1 85/3/1 84/3/1
f 90/3/1 88/3/1 87/3/1
f 90/3/1 86/3/1 85/3/1
f 90/3/1 87/3/1 86/3/1
f 91/3/1 88/3/1 90/3/1
f 94/3/1 93/3/1 92/3/1
f 95/3/1 93/3/1 94/3/1
f 97/3/1 96/3/1 95/3/1
f 98/3/1 96/3/1 97/3/1
f 101/3/1 100/3/1 99/3/1
f 102/3/1 100/3/1 101/3/1
f 105/3/1 104/3/1 103/3/1
f 106/3/1 104/3/1 105/3/1
f 109/3/1 108/3/1 107/3/1
f 110/3/1 108/3/1 109/3/1
f 114/3/1 112/3/1 111/3/1
f 114/3/1 113/3/1 112/3/1
f 115/3/1 113/3/1 114/3/1
f 116/3/1 113/3/1 115/3/1
f 117/3/2 118/3/2 119/3/2
f 119/3/2 118/3/2 120/3/2
f 120/3/2 121/3/2 122/3/2
f 122/3/2 121/3/2 123/3/2
f 123/3/2 124/3/2 125/3/2
f 125/3/2 124/3/2 126/3/2
f 126/3/2 127/3/2 128/3/2
f 128/3/2 127/3/2 129/3/2
f 130/3/2 131/3/2 134/3/2
f 134/3/2 131/3/2 135/3/2
f 132/3/2 133/3/2 138/3/2
f 138/3/2 133/3/2 139/3/2
f 135/3/2 136/3/2 140/3/2
f 140/3/2 136/3/2 141/3/2
f 137/3/2 138/3/2 142/3/2
f 142/3/2 138/3/2 143/3/2
f 144/3/2 145/3/2 146/3/2
f 146/3/2 145/3/2 147/3/2
f 147/3/2 145/3/2 148/3/2
f 148/3/2 149/3/2 150/3/2
f 147/3/2 148/3/2 150/3/2
f 150/3/2 149/3/2 151/3/2
f 147/3/2 150/3/2 152/3/2
f 152/3/2 150/3/2 153/3/2
f 154/3/2 155/3/2 156/3/2
f 156/3/2 155/3/2 157/3/2
f 158/3/2 159/3/2 160/3/2
f 160/3/2 159/3/2 161/3/2
f 162/3/2 163/3/2 164/3/2
f 164/3/2 163/3/2 165/3/2
f 165/3/2 163/3/2 166/3/2
f 166/3/2 163/3/2 167/3/2
f 165/3/2 166/3/2 168/3/2
f 168/3/2 166/3/2 169/3/2
f 170/3/2 171/3/2 174/3/2
f 174/3/2 171/3/2 175/3/2
f 172/3/2 173/3/2 177/3/2
f 177/3/2 173/3/2 178/3/2
f 175/3/2 176/3/2 179/3/2
f 179/3/2 176/3/2 180/3/2
f 181/3/2 182/3/2 183/3/2
f 183/3/2 182/3/2 184/3/2
f 185/3/2 186/3/2 188/3/2
f 188/3/2 186/3/2 189/3/2
f 187/3/2 188/3/2 190/3/2
f 190/3/2 188/3/2 191/3/2
f 191/3/2 188/3/2 192/3/2
f 192/3/2 188/3/2 193/3/2
f 196/3/2 197/3/2 198/3/2
f 198/3/2 197/3/2 199/3/2
f 194/3/2 195/3/2 202/3/2
f 202/3/2 195/3/2 203/3/2
f 199/3/2 200/3/2 204/3/2
f 204/3/2 200/3/2 205/3/2
f 201/3/2 202/3/2 206/3/2
f 206/3/2 202/3/2 207/3/2
f 208/3/2 209/3/2 210/3/2
f 210/3/2 209/3/2 211/3/2
f 211/3/2 209/3/2 212/3/2
f 213/3/2 214/3/2 218/3/2
f 214/3/2 215/3/2 218/3/2
f 218/3/2 215/3/2 219/3/2
f 220/3/2 221/3/2 222/3/2
f 222/3/2 221/3/2 223/3/2
f 216/3/2 217/3/2 224/3/2
f 224/3/2 217/3/2 225/3/2
f 225/3/2 226/3/2 227/3/2
f 227/3/2 226/3/2 228/3/2
f 228/3/2 226/3/2 229/3/2
f 229/3/2 226/3/2 230/3/2
f 228/3/2 229/3/2 231/3/2
f 231/3/2 229/3/2 232/3/2
f 233/3/2 234/3/2 237/3/2
f 237/3/2 234/3/2 238/3/2
f 235/3/2 236/3/2 239/3/2
f 239/3/2 236/3/2 240/3/2
f 240/3/2 236/3/2 244/3/2
f 241/3/2 242/3/2 245/3/2
f 245/3/2 242/3/2 246/3/2
f 243/3/2 244/3/2 247/3/2
f 244/3/2 236/3/2 248/3/2
f 247/3/2 244/3/2 248/3/2
f 249/3/2 250/3/2 251/3/2
f 251/3/2 250/3/2 252/3/2
f 253/3/2 254/3/2 256/3/2
f 256/3/2 254/3/2 257/3/2
f 255/3/2 256/3/2 259/3/2
f 257/3/2 258/3/2 259/3/2
f 256/3/2 257/3/2 259/3/2
f 259/3/2 258/3/2 260/3/2
f 260/3/2 258/3/2 261/3/2
f 261/3/2 258/3/2 262/3/2
f 260/3/2 261/3/2 263/3/2
f 263/3/2 261/3/2 264/3/2
f 267/3/3 266/3/3 265/3/3
f 268/3/3 266/3/3 267/3/3
f 273/3/3 270/3/3 269/3/3
f 274/3/3 270/3/3 273/3/3
f 275/3/3 272/3/3 271/3/3
f 276/3/3 275/3/3 274/3/3
f 277/3/3 272/3/3 275/3/3
f 277/3/3 275/3/3 276/3/3
f 280/4/3 279/4/3 278/4/3
f 281/4/3 279/4/3 280/4/3
f 285/3/3 283/3/3 282/3/3
f 286/3/3 283/3/3 285/3/3
f 287/3/3 283/3/3 286/3/3
f 288/3/3 283/3/3 287/3/3
f 289/3/3 283/3/3 288/3/3
f 292/3/3 285/3/3 284/3/3
f 292/3/3 286/3/3 285/3/3
f 293/3/3 288/3/3 287/3/3
f 294/3/3 288/3/3 293/3/3
f 294/3/3 293/3/3 292/3/3
f 295/3/3 288/3/3 294/3/3
f 296/3/3 291/3/3 290/3/3
f 297/3/3 291/3/3 296/3/3
f 298/3/3 292/3/3 284/3/3
f 298/3/3 294/3/3 292/3/3
f 299/3/3 294/3/3 298/3/3
f 303/3/3 301/3/3 300/3/3
f 304/3/3 301/3/3 303/3/3
f 305/3/3 303/3/3 302/3/3
f 306/3/3 303/3/3 305/3/3
f 308/3/3 305/3/3 302/3/3
f 309/3/3 305/3/3 308/3/3
f 311/3/3 308/3/3 307/3/3
f 312/3/3 308/3/3 311/3/3
f 313/3/3 311/3/3 310/3/3
f 314/3/3 311/3/3 313/3/3
f 315/3/3 311/3/3 314/3/3
f 316/3/3 311/3/3 315/3/3
f 317/3/3 315/3/3 314/3/3
f 318/3/3 315/3/3 317/3/3
f 321/3/3 320/3/3 319/3/3
f 322/3/3 320/3/3 321/3/3
f 327/4/3 324/4/3 323/4/3
f 328/4/3 324/4/3 327/4/3
f 329/3/3 326/3/3 325/3/3
f 330/3/3 326/3/3 329/3/3
f 335/3/3 332/3/3 331/3/3
f 336/3/3 332/3/3 335/3/3
f 341/3/3 334/3/3 333/3/3
f 342/3/3 334/3/3 341/3/3
f 343/3/3 338/3/3 337/3/3
f 344/3/3 338/3/3 343/3/3
f 345/3/3 340/3/3 339/3/3
f 346/3/3 340/3/3 345/3/3
f 350/3/3 348/3/3 347/3/3
f 351/3/3 348/3/3 350/3/3
f 352/3/3 350/3/3 349/3/3
f 353/3/3 350/3/3 352/3/3
f 356/3/3 355/3/3 354/3/3
f 357/3/3 355/3/3 356/3/3
f 360/3/3 359/3/3 358/3/3
f 361/3/3 359/3/3 360/3/3
f 362/3/4 363/3/4 364/3/4
f 364/3/4 363/3/4 365/3/4
f 366/3/4 367/3/4 368/3/4
f 368/3/4 367/3/4 369/3/4
f 370/3/4 371/3/4 372/3/4
f 372/3/4 371/3/4 373/3/4
f 374/3/4 375/3/4 378/3/4
f 378/3/4 375/3/4 379/3/4
f 376/3/4 377/3/4 380/3/4
f 380/3/4 377/3/4 381/3/4
f 382/3/4 383/3/4 384/3/4
f 384/3/4 383/3/4 385/3/4
f 386/3/4 387/3/4 390/3/4
f 390/3/4 387/3/4 391/3/4
f 388/3/4 389/3/4 392/3/4
f 392/3/4 389/3/4 393/3/4
f 394/3/4 395/3/4 397/3/4
f 397/3/4 395/3/4 398/3/4
f 396/3/4 397/3/4 399/3/4
f 399/3/4 397/3/4 400/3/4
f 401/3/4 402/3/4 403/3/4
f 403/3/4 402/3/4 404/3/4
f 405/3/4 406/3/4 407/3/4
f 407/3/4 406/3/4 408/3/4
f 409/3/4 410/3/4 413/3/4
f 413/3/4 410/3/4 414/3/4
f 411/3/4 412/3/4 416/3/4
f 416/3/4 412/3/4 417/3/4
f 411/3/4 416/3/4 419/3/4
f 418/3/4 419/3/4 421/3/4
f 419/3/4 416/3/4 422/3/4
f 421/3/4 419/3/4 422/3/4
f 420/3/4 421/3/4 424/3/4
f 424/3/4 421/3/4 425/3/4
f 414/3/4 415/3/4 426/3/4
f 423/3/4 424/3/4 427/3/4
f 427/3/4 424/3/4 428/3/4
f 428/3/4 424/3/4 429/3/4
f 414/3/4 426/3/4 430/3/4
f 426/3/4 427/3/4 430/3/4
f 427/3/4 428/3/4 430/3/4
f 430/3/4 428/3/4 431/3/4
f 432/3/4 433/3/4 436/3/4
f 436/3/4 433/3/4 437/3/4
f 434/3/4 435/3/4 440/3/4
f 440/3/4 435/3/4 441/3/4
f 439/3/4 440/3/4 441/3/4
f 441/3/4 435/3/4 442/3/4
f 437/3/4 438/3/4 443/3/4
f 439/3/4 441/3/4 444/3/4
f 444/3/4 441/3/4 445/3/4
f 445/3/4 441/3/4 446/3/4
f 443/3/4 444/3/4 447/3/4
f 444/3/4 445/3/4 447/3/4
f 447/3/4 445/3/4 448/3/4
f 437/3/4 443/3/4 449/3/4
f 443/3/4 447/3/4 449/3/4
f 449/3/4 447/3/4 450/3/4
f 451/3/4 452/3/4 455/3/4
f 455/3/4 452/3/4 456/3/4
f 453/3/4 454/3/4 457/3/4
f 456/3/4 457/3/4 458/3/4
f 457/3/4 454/3/4 459/3/4
f 458/3/4 457/3/4 459/3/4
f 456/3/4 458/3/4 460/3/4
f 460/3/4 458/3/4 461/3/4
f 462/3/4 463/3/4 464/3/4
f 464/3/4 463/3/4 465/3/4
f 468/3/5 467/3/5 466/3/5
f 469/3/5 467/3/5 468/3/5
f 472/3/5 471/3/5 470/3/5
f 473/3/5 471/3/5 472/3/5
f 474/3/5 471/3/5 473/3/5
f 478/3/5 476/3/5 475/3/5
f 479/3/5 478/3/5 477/3/5
f 480/3/5 476/3/5 478/3/5
f 480/3/5 478/3/5 479/3/5
f 483/3/5 482/3/5 481/3/5
f 484/3/5 483/3/5 481/3/5
f 485/3/5 483/3/5 484/3/5
f 488/3/5 487/3/5 486/3/5
f 489/3/5 487/3/5 488/3/5
f 490/3/5 488/3/5 486/3/5
f 491/3/5 488/3/5 490/3/5
f 494/3/5 493/3/5 492/3/5
f 495/3/5 493/3/5 494/3/5
f 498/3/5 497/3/5 496/3/5
f 500/3/5 499/3/5 498/3/5
f 502/3/5 498/3/5 496/3/5
f 502/3/5 501/3/5 500/3/5
f 502/3/5 500/3/5 498/3/5
f 503/3/5 501/3/5 502/3/5
f 505/3/5 502/3/5 496/3/5
f 506/3/5 502/3/5 505/3/5
f 507/3/5 501/3/5 503/3/5
f 508/3/5 501/3/5 507/3/5
f 509/3/5 501/3/5 508/3/5
f 511/3/5 506/3/5 505/3/5
f 511/3/5 505/3/5 504/3/5
f 511/3/5 508/3/5 507/3/5
f 511/3/5 507/3/5 506/3/5
f 512/3/5 508/3/5 511/3/5
f 513/3/5 511/3/5 510/3/5
f 514/3/5 511/3/5 513/3/5
f 517/3/5 516/3/5 515/3/5
f 518/3/5 516/3/5 517/3/5
f 521/3/5 520/3/5 519/3/5
f 522/3/5 520/3/5 521/3/5
f 526/3/5 524/3/5 523/3/5
f 527/3/5 524/3/5 526/3/5
f 528/3/5 526/3/5 525/3/5
f 529/3/5 526/3/5 528/3/5
f 533/3/5 531/3/5 530/3/5
f 534/3/5 531/3/5 533/3/5
f 535/3/5 533/3/5 532/3/5
f 536/3/5 533/3/5 535/3/5
f 539/3/5 538/3/5 537/3/5
f 540/3/5 538/3/5 539/3/5
f 541/3/6 542/3/6 543/3/6
f 541/3/6 543/3/6 544/3/6
f 544/3/6 543/3/6 545/3/6
f 546/3/6 547/3/6 548/3/6
f 548/3/6 547/3/6 549/3/6
f 549/3/6 547/3/6 550/3/6
f 551/3/6 552/3/6 554/3/6
f 554/3/6 552/3/6 555/3/6
f 553/3/6 554/3/6 556/3/6
f 556/3/6 554/3/6 557/3/6
f 558/3/6 559/3/6 560/3/6
f 560/3/6 559/3/6 561/3/6
f 562/3/6 563/3/6 564/3/6
f 564/3/6 563/3/6 565/3/6
f 566/3/6 567/3/6 568/3/6
f 568/3/6 567/3/6 569/3/6
f 570/3/6 571/3/6 572/3/6
f 572/3/6 571/3/6 573/3/6
f 574/3/6 575/3/6 576/3/6
f 576/3/6 575/3/6 577/3/6
f 578/3/6 579/3/6 580/3/6
f 580/3/6 579/3/6 581/3/6
f 581/3/6 582/3/6 583/3/6
f 581/3/6 583/3/6 585/3/6
f 583/3/6 584/3/6 585/3/6
f 585/3/6 584/3/6 586/3/6
f 581/3/6 585/3/6 587/3/6
f 587/3/6 585/3/6 588/3/6
f 589/3/6 590/3/6 591/3/6
f 591/3/6 590/3/6 592/3/6
f 593/3/6 594/3/6 595/3/6
f 595/3/6 594/3/6 596/3/6
f 596/3/6 597/3/6 598/3/6
f 598/3/6 597/3/6 599/3/6
f 600/3/6 601/3/6 603/3/6
f 603/3/6 601/3/6 604/3/6
f 602/3/6 603/3/6 605/3/6
f 605/3/6 603/3/6 606/3/6
f 607/3/6 608/3/6 609/3/6
f 609/3/6 608/3/6 610/3/6
f 611/3/6 612/3/6 613/3/6
f 611/3/6 613/3/6 615/3/6
f 613/3/6 614/3/6 615/3/6
f 615/3/6 614/3/6 616/3/6
f 611/3/6 615/3/6 618/3/6
f 618/3/6 615/3/6 619/3/6
f 617/3/6 618/3/6 622/3/6
f 622/3/6 618/3/6 623/3/6
f 620/3/6 621/3/6 624/3/6
f 624/3/6 621/3/6 625/3/6
f 626/3/6 627/3/6 628/3/6
f 628/3/6 627/3/6 629/3/6
f 629/3/6 630/3/6 631/3/6
f 631/3/6 630/3/6 632/3/6
f 633/3/6 634/3/6 635/3/6
f 635/3/6 634/3/6 636/3/6
f 637/3/6 638/3/6 639/3/6
f 639/3/6 638/3/6 640/3/6
f 640/3/6 638/3/6 641/3/6
f 641/3/6 642/3/6 643/3/6
f 640/3/6 641/3/6 643/3/6
f 643/3/6 642/3/6 644/3/6
f 644/3/6 642/3/6 646/3/6
f 645/3/6 646/3/6 647/3/6
f 646/3/6 642/3/6 648/3/6
f 647/3/6 646/3/6 648/3/6
f 649/3/6 650/3/6 651/3/6
f 651/3/6 650/3/6 652/3/6
f 652/3/6 653/3/6 654/3/6
f 654/3/6 653/3/6 655/3/6
f 656/3/6 657/3/6 659/3/6
f 659/3/6 657/3/6 660/3/6
f 658/3/6 659/3/6 661/3/6
f 661/3/6 659/3/6 662/3/6
f 663/3/6 664/3/6 665/3/6
f 663/3/6 665/3/6 667/3/6
f 665/3/6 666/3/6 667/3/6
f 667/3/6 666/3/6 668/3/6
f 663/3/6 667/3/6 669/3/6
f 669/3/6 667/3/6 670/3/6
