# MagicaVoxel @ Ephtracy

# group
o 

# material
mtllib SpaceInvader5.2.mtl
usemtl palette

# normals
vn -1 0 0
vn 1 0 0
vn 0 0 1
vn 0 0 -1
vn 0 -1 0
vn 0 1 0

# texcoords
vt 0.0957031 0.5
vt 0.126953 0.5
vt 0.865234 0.5
vt 0.873047 0.5
vt 0.994141 0.5

# verts
v -0.4 0.5 0.2
v -0.4 0.5 0.1
v -0.4 0.5 -0.1
v -0.4 0.7 0.4
v -0.4 0.7 0.2
v -0.4 0.7 0.1
v -0.4 0.8 0.4
v -0.4 0.8 -0.1
v -0.3 0.5 -0.1
v -0.3 0.5 -0.2
v -0.3 0.6 -0.1
v -0.3 0.6 -0.2
v -0.2 0.5 0.3
v -0.2 0.5 0.2
v -0.2 0.5 -0.2
v -0.2 0.5 -0.3
v -0.2 0.6 0.2
v -0.2 0.6 0.1
v -0.2 0.6 0
v -0.2 0.6 -0.1
v -0.2 0.6 -0.2
v -0.2 0.6 -0.3
v -0.2 0.7 0.3
v -0.2 0.7 -0.1
v -0.2 0.8 0.2
v -0.2 0.8 -0.2
v -0.2 0.9 0.2
v -0.2 0.9 -0.2
v -0.1 0.6 -0.1
v -0.1 0.6 -0.2
v -0.1 0.7 0.2
v -0.1 0.7 0
v -0.1 0.7 -0.1
v -0.1 0.7 -0.2
v -0.1 0.8 0.2
v -0.1 0.8 0
v 0 0.5 0.3
v 0 0.5 0.2
v 0 0.6 0.3
v 0 0.6 0.2
v -0.3 0.6 0.2
v -0.3 0.6 0.1
v -0.3 0.6 0
v -0.3 0.6 -0.1
v -0.3 0.7 0.4
v -0.3 0.7 0.2
v -0.3 0.7 0.1
v -0.3 0.8 0.4
v -0.3 0.8 -0.1
v -0.1 0.5 0.3
v -0.1 0.5 0.2
v -0.1 0.6 0.3
v -0.1 0.6 0.2
v -0.1 0.8 0.2
v -0.1 0.8 0
v -0.1 0.8 -0.2
v -0.1 0.9 0.2
v -0.1 0.9 -0.2
v 0 0.7 0.2
v 0 0.7 0
v 0 0.8 0.2
v 0 0.8 0
v 0.1 0.5 0.3
v 0.1 0.5 0.2
v 0.1 0.5 0.1
v 0.1 0.5 0
v 0.1 0.5 -0.2
v 0.1 0.5 -0.3
v 0.1 0.6 0.2
v 0.1 0.6 0.1
v 0.1 0.6 0
v 0.1 0.6 -0.2
v 0.1 0.6 -0.3
v 0.1 0.7 0.3
v 0.1 0.7 -0.2
v -0.4 0.7 0.4
v -0.4 0.8 0.4
v -0.3 0.7 0.4
v -0.3 0.8 0.4
v -0.2 0.5 0.3
v -0.2 0.7 0.3
v -0.1 0.5 0.3
v -0.1 0.6 0.3
v 0 0.5 0.3
v 0 0.6 0.3
v 0.1 0.5 0.3
v 0.1 0.7 0.3
v -0.4 0.5 0.2
v -0.4 0.7 0.2
v -0.3 0.5 0.2
v -0.3 0.6 0.2
v -0.3 0.7 0.2
v -0.2 0.5 0.2
v -0.2 0.6 0.2
v -0.2 0.8 0.2
v -0.2 0.9 0.2
v -0.1 0.5 0.2
v -0.1 0.6 0.2
v -0.1 0.7 0.2
v -0.1 0.8 0.2
v -0.1 0.9 0.2
v 0 0.5 0.2
v 0 0.6 0.2
v 0 0.7 0.2
v 0 0.8 0.2
v -0.1 0.7 0
v -0.1 0.8 0
v 0 0.7 0
v 0 0.8 0
v -0.4 0.5 -0.1
v -0.4 0.8 -0.1
v -0.3 0.5 -0.1
v -0.3 0.6 -0.1
v -0.3 0.8 -0.1
v -0.2 0.6 -0.1
v -0.2 0.7 -0.1
v -0.1 0.6 -0.1
v -0.1 0.7 -0.1
v -0.3 0.5 -0.2
v -0.3 0.6 -0.2
v -0.2 0.5 -0.2
v -0.2 0.6 -0.2
v -0.2 0.8 -0.2
v -0.2 0.9 -0.2
v -0.1 0.6 -0.2
v -0.1 0.7 -0.2
v -0.1 0.8 -0.2
v -0.1 0.9 -0.2
v 0.1 0.6 -0.2
v 0.1 0.7 -0.2
v -0.2 0.5 -0.3
v -0.2 0.6 -0.3
v 0.1 0.5 -0.3
v 0.1 0.6 -0.3
v -0.2 0.5 0.3
v -0.1 0.5 0.3
v 0 0.5 0.3
v 0.1 0.5 0.3
v -0.4 0.5 0.2
v -0.3 0.5 0.2
v -0.2 0.5 0.2
v -0.1 0.5 0.2
v 0 0.5 0.2
v 0.1 0.5 0.2
v -0.4 0.5 0.1
v -0.3 0.5 0.1
v -0.2 0.5 0.1
v -0.1 0.5 0.1
v 0 0.5 0.1
v 0.1 0.5 0.1
v -0.3 0.5 0
v -0.2 0.5 0
v -0.1 0.5 0
v 0 0.5 0
v 0.1 0.5 0
v -0.4 0.5 -0.1
v -0.3 0.5 -0.1
v -0.2 0.5 -0.1
v -0.1 0.5 -0.1
v 0 0.5 -0.1
v -0.3 0.5 -0.2
v -0.2 0.5 -0.2
v 0.1 0.5 -0.2
v -0.2 0.5 -0.3
v 0.1 0.5 -0.3
v -0.1 0.6 0.3
v 0 0.6 0.3
v -0.1 0.6 0.2
v 0 0.6 0.2
v -0.4 0.7 0.4
v -0.3 0.7 0.4
v -0.4 0.7 0.2
v -0.3 0.7 0.2
v -0.2 0.8 0.2
v -0.1 0.8 0.2
v -0.1 0.8 0
v -0.2 0.8 -0.2
v -0.1 0.8 -0.2
v -0.3 0.6 0.2
v -0.2 0.6 0.2
v -0.3 0.6 0.1
v -0.2 0.6 0.1
v -0.3 0.6 0
v -0.2 0.6 0
v -0.3 0.6 -0.1
v -0.2 0.6 -0.1
v -0.1 0.6 -0.1
v -0.3 0.6 -0.2
v -0.2 0.6 -0.2
v -0.1 0.6 -0.2
v 0.1 0.6 -0.2
v -0.2 0.6 -0.3
v 0.1 0.6 -0.3
v -0.2 0.7 0.3
v 0.1 0.7 0.3
v -0.1 0.7 0.2
v 0 0.7 0.2
v -0.1 0.7 0
v 0 0.7 0
v -0.2 0.7 -0.1
v -0.1 0.7 -0.1
v -0.1 0.7 -0.2
v 0.1 0.7 -0.2
v -0.4 0.8 0.4
v -0.3 0.8 0.4
v -0.1 0.8 0.2
v 0 0.8 0.2
v -0.1 0.8 0
v 0 0.8 0
v -0.4 0.8 -0.1
v -0.3 0.8 -0.1
v -0.2 0.9 0.2
v -0.1 0.9 0.2
v -0.2 0.9 -0.2
v -0.1 0.9 -0.2

# faces
f 5/2/1 2/2/1 1/2/1
f 6/1/1 3/1/1 2/1/1
f 6/2/1 2/2/1 5/2/1
f 7/1/1 5/1/1 4/1/1
f 7/1/1 6/1/1 5/1/1
f 8/1/1 3/1/1 6/1/1
f 8/1/1 6/1/1 7/1/1
f 11/1/1 10/1/1 9/1/1
f 12/1/1 10/1/1 11/1/1
f 17/1/1 14/1/1 13/1/1
f 21/1/1 16/1/1 15/1/1
f 22/1/1 16/1/1 21/1/1
f 23/1/1 20/1/1 19/1/1
f 23/1/1 17/1/1 13/1/1
f 23/1/1 18/1/1 17/1/1
f 23/1/1 19/1/1 18/1/1
f 24/1/1 20/1/1 23/1/1
f 27/1/1 26/1/1 25/1/1
f 28/1/1 26/1/1 27/1/1
f 33/1/1 30/1/1 29/1/1
f 34/1/1 30/1/1 33/1/1
f 35/1/1 32/1/1 31/1/1
f 36/1/1 32/1/1 35/1/1
f 39/1/1 38/1/1 37/1/1
f 40/1/1 38/1/1 39/1/1
f 41/2/2 42/2/2 46/2/2
f 43/1/2 44/1/2 47/1/2
f 42/1/2 43/1/2 47/1/2
f 46/2/2 42/2/2 47/2/2
f 45/1/2 46/1/2 48/1/2
f 46/1/2 47/1/2 48/1/2
f 47/1/2 44/1/2 49/1/2
f 48/1/2 47/1/2 49/1/2
f 50/1/2 51/1/2 52/1/2
f 52/1/2 51/1/2 53/1/2
f 54/1/2 55/1/2 57/1/2
f 55/1/2 56/1/2 57/1/2
f 57/1/2 56/1/2 58/1/2
f 59/1/2 60/1/2 61/1/2
f 61/1/2 60/1/2 62/1/2
f 63/1/2 64/1/2 69/1/2
f 64/3/2 65/3/2 69/3/2
f 65/4/2 66/4/2 70/4/2
f 69/3/2 65/3/2 70/3/2
f 66/3/2 67/3/2 71/3/2
f 70/4/2 66/4/2 71/4/2
f 67/1/2 68/1/2 72/1/2
f 71/3/2 67/3/2 72/3/2
f 72/1/2 68/1/2 73/1/2
f 70/1/2 71/1/2 74/1/2
f 69/1/2 70/1/2 74/1/2
f 71/1/2 72/1/2 74/1/2
f 63/1/2 69/1/2 74/1/2
f 74/1/2 72/1/2 75/1/2
f 78/1/3 77/1/3 76/1/3
f 79/1/3 77/1/3 78/1/3
f 82/1/3 81/1/3 80/1/3
f 83/1/3 81/1/3 82/1/3
f 85/1/3 81/1/3 83/1/3
f 86/1/3 85/1/3 84/1/3
f 87/1/3 81/1/3 85/1/3
f 87/1/3 85/1/3 86/1/3
f 90/2/3 89/2/3 88/2/3
f 91/2/3 89/2/3 90/2/3
f 92/2/3 89/2/3 91/2/3
f 93/1/3 91/1/3 90/1/3
f 94/1/3 91/1/3 93/1/3
f 100/1/3 96/1/3 95/1/3
f 101/1/3 96/1/3 100/1/3
f 102/5/3 98/5/3 97/5/3
f 103/5/3 98/5/3 102/5/3
f 104/1/3 100/1/3 99/1/3
f 105/1/3 100/1/3 104/1/3
f 106/1/4 107/1/4 108/1/4
f 108/1/4 107/1/4 109/1/4
f 110/1/4 111/1/4 112/1/4
f 112/1/4 111/1/4 113/1/4
f 113/1/4 111/1/4 114/1/4
f 115/1/4 116/1/4 117/1/4
f 117/1/4 116/1/4 118/1/4
f 119/1/4 120/1/4 121/1/4
f 121/1/4 120/1/4 122/1/4
f 123/1/4 124/1/4 127/1/4
f 127/1/4 124/1/4 128/1/4
f 125/1/4 126/1/4 129/1/4
f 129/1/4 126/1/4 130/1/4
f 131/1/4 132/1/4 133/1/4
f 133/1/4 132/1/4 134/1/4
f 141/1/5 136/1/5 135/1/5
f 142/1/5 136/1/5 141/1/5
f 143/1/5 138/1/5 137/1/5
f 144/1/5 138/1/5 143/1/5
f 145/2/5 140/2/5 139/2/5
f 146/1/5 141/1/5 140/1/5
f 146/2/5 140/2/5 145/2/5
f 147/3/5 142/3/5 141/3/5
f 147/1/5 141/1/5 146/1/5
f 148/5/5 143/5/5 142/5/5
f 148/3/5 142/3/5 147/3/5
f 149/3/5 144/3/5 143/3/5
f 149/5/5 143/5/5 148/5/5
f 150/3/5 144/3/5 149/3/5
f 151/1/5 146/1/5 145/1/5
f 151/3/5 147/3/5 146/3/5
f 152/4/5 148/4/5 147/4/5
f 152/3/5 147/3/5 151/3/5
f 153/3/5 149/3/5 148/3/5
f 153/4/5 148/4/5 152/4/5
f 154/4/5 150/4/5 149/4/5
f 154/3/5 149/3/5 153/3/5
f 155/4/5 150/4/5 154/4/5
f 156/1/5 151/1/5 145/1/5
f 157/4/5 152/4/5 151/4/5
f 157/1/5 151/1/5 156/1/5
f 158/3/5 153/3/5 152/3/5
f 158/4/5 152/4/5 157/4/5
f 159/4/5 154/4/5 153/4/5
f 159/3/5 153/3/5 158/3/5
f 160/3/5 155/3/5 154/3/5
f 160/4/5 154/4/5 159/4/5
f 161/1/5 158/1/5 157/1/5
f 162/3/5 160/3/5 159/3/5
f 162/1/5 158/1/5 161/1/5
f 162/3/5 159/3/5 158/3/5
f 163/3/5 155/3/5 160/3/5
f 163/3/5 160/3/5 162/3/5
f 164/1/5 163/1/5 162/1/5
f 165/1/5 163/1/5 164/1/5
f 168/1/5 167/1/5 166/1/5
f 169/1/5 167/1/5 168/1/5
f 172/1/5 171/1/5 170/1/5
f 173/1/5 171/1/5 172/1/5
f 176/1/5 175/1/5 174/1/5
f 177/1/5 176/1/5 174/1/5
f 178/1/5 176/1/5 177/1/5
f 179/1/6 180/1/6 181/1/6
f 181/1/6 180/1/6 182/1/6
f 181/3/6 182/3/6 183/3/6
f 183/3/6 182/3/6 184/3/6
f 183/4/6 184/4/6 185/4/6
f 185/4/6 184/4/6 186/4/6
f 185/1/6 186/1/6 188/1/6
f 186/3/6 187/3/6 189/3/6
f 188/1/6 186/1/6 189/1/6
f 189/3/6 187/3/6 190/3/6
f 190/1/6 191/1/6 192/1/6
f 189/1/6 190/1/6 192/1/6
f 192/1/6 191/1/6 193/1/6
f 194/1/6 195/1/6 196/1/6
f 196/1/6 195/1/6 197/1/6
f 194/1/6 196/1/6 198/1/6
f 197/1/6 195/1/6 199/1/6
f 194/1/6 198/1/6 200/1/6
f 198/1/6 199/1/6 200/1/6
f 200/1/6 199/1/6 201/1/6
f 201/1/6 199/1/6 202/1/6
f 199/1/6 195/1/6 203/1/6
f 202/1/6 199/1/6 203/1/6
f 206/1/6 207/1/6 208/1/6
f 208/1/6 207/1/6 209/1/6
f 204/1/6 205/1/6 210/1/6
f 210/1/6 205/1/6 211/1/6
f 212/1/6 213/1/6 214/1/6
f 214/1/6 213/1/6 215/1/6
